<svg width="191" height="37" viewBox="0 0 191 37" fill="none" xmlns="http://www.w3.org/2000/svg">
<rect x="0.5" y="0.75" width="190" height="35" rx="4.5" fill="white" stroke="#CCCCCC"/>
<path d="M19.444 21.2933C19.4403 21.2556 19.4285 21.2208 19.4285 21.183V20.8592C19.4285 20.7051 19.4537 20.5533 19.5041 20.4088C19.5041 20.4088 20.3108 19.3287 20.6924 18.0596C20.2745 17.1781 19.8952 16.0809 19.8952 14.9934C19.8952 14.7407 19.9137 14.4963 19.9397 14.2555C19.3952 13.6851 18.6595 13.362 17.8468 13.362C16.1688 13.362 14.8072 14.7311 14.8072 16.8587C14.8072 18.5611 16.1926 20.4088 16.1926 20.4088C16.2415 20.5532 16.2667 20.7051 16.2667 20.8592V21.1829C16.2667 21.5867 16.0311 21.9541 15.6637 22.1223L13.4641 23.0209C12.9529 23.2565 12.5892 23.7262 12.4877 24.2788L12.4499 24.7626C12.4307 25.0145 12.5166 25.2627 12.6885 25.4471C12.8596 25.6331 13.1004 25.7375 13.353 25.7375H16.9482L17.0956 23.8433L17.1052 23.7921C17.2853 22.7987 17.9417 21.9541 18.8588 21.5319L19.444 21.2933Z" fill="#44585F"/>
<path d="M36.6825 24.2788C36.5817 23.7262 36.218 23.2565 35.7068 23.0209L33.5058 22.1223C33.1383 21.9541 32.9042 21.5867 32.9042 21.1829V20.8592C32.9042 20.7051 32.9287 20.5532 32.979 20.4088C32.979 20.4088 34.3636 18.5611 34.3636 16.8587C34.3636 14.7311 33.0027 13.362 31.3218 13.362C30.5106 13.362 29.775 13.6851 29.229 14.2569C29.2557 14.497 29.2742 14.7407 29.2742 14.9933C29.2742 16.0801 28.8956 17.1773 28.4785 18.0588C28.8593 19.3279 29.6675 20.4088 29.6675 20.4088C29.7164 20.5532 29.7424 20.7051 29.7424 20.8592V21.1829C29.7424 21.2207 29.7297 21.2555 29.726 21.2933L30.2713 21.5156C31.2269 21.9527 31.8833 22.7972 32.0656 23.7906L32.0745 23.8425L32.2212 25.7375H35.8179C36.0705 25.7375 36.3113 25.6331 36.4817 25.4471C36.6535 25.2627 36.7395 25.0145 36.7202 24.7626L36.6825 24.2788Z" fill="#44585F"/>
<path d="M29.8894 22.4512L27.2269 21.363C26.7824 21.1585 26.4987 20.714 26.4987 20.2265V19.8339C26.4987 19.6487 26.5283 19.4642 26.5898 19.2886C26.5898 19.2886 28.2641 17.0543 28.2641 14.9933C28.2641 12.4182 26.6173 10.7625 24.5851 10.7625C22.5538 10.7625 20.9062 12.4182 20.9062 14.9933C20.9062 17.0543 22.5819 19.2886 22.5819 19.2886C22.642 19.4642 22.6731 19.6487 22.6731 19.8339V20.2265C22.6731 20.714 22.3871 21.1585 21.9433 21.363L19.2808 22.4512C18.6622 22.7349 18.2214 23.3039 18.1 23.9736L17.9629 25.7375H24.5851H31.2074L31.0718 23.9736C30.9488 23.3039 30.508 22.735 29.8894 22.4512Z" fill="#44585F"/>
</svg>
