<svg width="546" height="74" viewBox="0 0 546 74" fill="none" xmlns="http://www.w3.org/2000/svg">
<path d="M75.469 32.36V32.44C77.749 33.28 79.029 35.44 79.749 38.68C80.669 42.68 81.429 45.84 82.029 47H77.229C76.789 46.12 76.069 43.44 75.309 39.68C74.469 35.6 72.989 34.04 69.749 34.04H66.949V47H62.349V16.8C64.309 16.44 67.029 16.16 69.789 16.16C73.789 16.16 76.589 16.88 78.509 18.6C80.109 20 80.949 22.12 80.949 24.6C80.949 28.52 78.549 31.2 75.469 32.36ZM66.949 30.56H70.069C73.909 30.56 76.309 28.36 76.309 25.08C76.309 21.12 73.509 19.76 70.189 19.76C68.629 19.76 67.509 19.88 66.949 20.04V30.56ZM103.658 42.84L104.418 46.12C102.858 46.84 100.418 47.44 97.418 47.44C90.778 47.44 86.938 43 86.938 36.28C86.938 29.72 90.618 24.48 96.858 24.48C103.058 24.48 105.538 29.64 105.538 35.08C105.538 35.84 105.498 36.48 105.418 37.04H91.418C91.538 42 94.618 43.88 98.098 43.88C100.538 43.88 102.218 43.44 103.658 42.84ZM91.458 33.72H101.138C101.178 31.08 100.098 27.8 96.538 27.8C93.138 27.8 91.698 31.16 91.458 33.72ZM110.817 36.52V33.2H121.817V36.52H110.817ZM145.208 43.08V47H128.768V16.4H133.408V43.08H145.208ZM156.515 18.88C156.515 20.36 155.475 21.56 153.795 21.56C152.195 21.56 151.115 20.36 151.115 18.88C151.115 17.32 152.235 16.16 153.835 16.16C155.435 16.16 156.515 17.32 156.515 18.88ZM156.115 24.92V47H151.475V24.92H156.115ZM178.741 24.96H182.861C182.741 26.52 182.661 28.36 182.661 31.32V43.88C182.661 48.28 182.301 56.4 171.861 56.4C169.301 56.4 166.621 55.84 164.901 54.8L165.941 51.2C167.301 52 169.421 52.76 171.901 52.76C175.501 52.76 178.061 50.76 178.061 45.76V43.64H177.981C176.861 45.52 174.701 46.88 171.861 46.88C166.661 46.88 163.101 42.28 163.101 36.12C163.101 28.64 167.621 24.48 172.421 24.48C175.701 24.48 177.541 26.16 178.461 27.92H178.541L178.741 24.96ZM178.021 37.8V33.48C178.021 30.56 176.101 28.16 173.261 28.16C170.061 28.16 167.821 31.2 167.821 35.92C167.821 40.24 169.781 43.32 173.221 43.32C175.621 43.32 178.021 41.48 178.021 37.8ZM209.162 33.68V47H204.522V34.12C204.522 30.96 203.442 28.32 200.322 28.32C198.042 28.32 195.602 30.2 195.602 33.52V47H190.962V14.92H195.602V27.96H195.682C197.122 25.68 199.602 24.48 202.002 24.48C205.322 24.48 209.162 26.72 209.162 33.68ZM218.306 24.96V20.96L222.906 19.52V24.96H228.146V28.44H222.906V39.6C222.906 42.32 223.746 43.64 225.706 43.64C226.626 43.64 227.186 43.52 227.746 43.36L227.906 46.92C227.106 47.24 225.866 47.44 224.306 47.44C222.466 47.44 220.906 46.84 219.946 45.76C218.826 44.56 218.306 42.72 218.306 39.84V28.44H215.186V24.96H218.306ZM233.802 25.286C235.155 25.253 236.64 25.121 237.234 25.055C239.478 24.791 257.133 22.349 260.433 22.349C260.796 23.141 260.994 24.56 260.994 25.517C259.971 25.484 257.595 25.484 255.516 26.144C250.17 27.926 247.86 32.843 247.86 36.671C247.86 43.106 253.173 44.888 258.156 44.888C258.09 45.977 257.496 47.66 256.902 48.386C251.127 48.353 244.329 45.35 244.329 37.397C244.329 32.018 247.233 28.256 250.203 26.342C247.068 26.672 238.521 28.256 235.056 28.718C234.528 27.992 233.934 26.177 233.802 25.286ZM260.499 27.695C261.225 28.652 262.314 30.632 262.776 31.721C262.38 32.018 261.621 32.414 260.994 32.612C260.433 31.358 259.509 29.642 258.783 28.52C259.278 28.19 260.037 27.827 260.499 27.695ZM256.77 29.18C257.43 30.104 258.585 32.249 258.981 33.272C258.618 33.602 257.826 33.998 257.199 34.163C256.671 32.876 255.747 31.127 255.021 30.005C255.516 29.675 256.308 29.312 256.77 29.18ZM299.631 40.16H287.751V46.08H303.271V49.48H268.791V46.08H283.791V40.16H272.111V36.84H283.791V31.24H274.031V28.12C272.511 29.24 270.911 30.24 269.311 31.16C268.831 30.32 267.791 28.92 266.991 28.16C273.911 24.44 280.671 18.04 283.711 12.88L288.951 13.16C288.831 13.56 288.511 13.8 287.991 13.84C291.871 19.12 298.911 24.72 304.991 27.6C304.071 28.56 303.191 29.84 302.471 30.96C300.991 30.12 299.471 29.16 297.951 28.12V31.24H287.751V36.84H299.631V40.16ZM274.431 27.84H297.551C292.871 24.52 288.391 20.4 285.751 16.72C283.351 20.28 279.191 24.4 274.431 27.84ZM311.311 20.68C312.951 20.64 314.751 20.48 315.471 20.4C318.191 20.08 339.591 17.12 343.591 17.12C344.031 18.08 344.271 19.8 344.271 20.96C343.031 20.92 340.151 20.92 337.631 21.72C331.151 23.88 328.351 29.84 328.351 34.48C328.351 42.28 334.791 44.44 340.831 44.44C340.751 45.76 340.031 47.8 339.311 48.68C332.311 48.64 324.071 45 324.071 35.36C324.071 28.84 327.591 24.28 331.191 21.96C327.391 22.36 317.031 24.28 312.831 24.84C312.191 23.96 311.471 21.76 311.311 20.68ZM364.511 23.44H369.351V46.72C369.351 50.2 367.631 50.56 362.511 50.56C362.391 49.64 361.871 48.2 361.391 47.32C362.511 47.36 363.511 47.4 364.311 47.4C365.991 47.4 366.191 47.4 366.191 46.68V39.88H357.551C357.191 43.72 356.311 47.72 354.391 50.68C353.831 50.16 352.471 49.28 351.711 48.96C354.471 44.72 354.711 38.72 354.711 34.16V27.36L354.231 27.92C353.631 27.28 352.431 26.28 351.671 25.8C354.271 22.92 356.511 18 357.751 13.08L361.791 14.2C361.711 14.48 361.391 14.68 360.911 14.64C360.711 15.36 360.471 16.04 360.231 16.76H364.631L365.151 16.6L367.671 18.12C367.511 18.32 367.271 18.44 366.991 18.52C366.391 19.96 365.471 21.8 364.511 23.44ZM360.631 26.32H357.791V30.16H360.631V26.32ZM366.191 26.32H363.271V30.16H366.191V26.32ZM360.631 33H357.791C357.791 35.32 357.791 36 357.751 37H360.631V33ZM363.271 33V37H366.191V33H363.271ZM357.311 23.44H361.151C361.791 22.4 362.391 21.04 362.911 19.72H359.111C358.551 21 357.951 22.28 357.311 23.44ZM386.631 15.08L388.511 15.28C388.511 15.56 388.471 15.96 388.471 16.32C387.951 27.4 387.551 27.84 382.631 27.84C381.951 27.84 381.231 27.84 380.471 27.8C380.391 26.84 380.071 25.56 379.591 24.68C381.071 24.84 382.391 24.88 382.951 24.88C383.471 24.88 383.791 24.8 384.071 24.48C384.471 23.96 384.751 22.36 384.951 18.32H379.191C378.431 22.68 376.831 26.76 371.471 29.12C371.071 28.32 370.151 27.12 369.431 26.52C373.551 24.8 375.071 21.88 375.751 18.32H370.711V15.12H385.871L386.631 15.08ZM381.951 40.32H389.471V43.64H381.951V50.56H378.311V43.64H370.431V40.32H378.311V36H374.431C373.911 37.28 373.311 38.48 372.591 39.4C371.991 38.88 370.911 38.04 370.151 37.6C371.631 35.64 372.631 32.2 373.151 28.84L376.911 29.72C376.871 30 376.591 30.16 376.111 30.16C375.951 31 375.751 31.88 375.511 32.76H378.311V28.2L382.871 28.48C382.831 28.84 382.551 29.04 381.951 29.12V32.76H388.071V36H381.951V40.32ZM431.831 31.8V35.36H421.311C423.271 40.88 426.951 45.2 432.271 47.28C431.391 48.04 430.231 49.56 429.631 50.6C423.911 48 420.151 43.12 417.911 36.64C416.631 42 413.591 46.96 406.591 50.64C405.911 49.84 404.471 48.52 403.511 47.92C410.191 44.52 413.071 40.12 414.271 35.36H405.471V31.8H414.871C415.031 30.2 415.071 28.6 415.071 27V23.24H407.791V19.64H415.071V13.12L419.751 13.4C419.711 13.76 419.471 13.96 418.831 14.04V19.64H428.351V31.8H431.831ZM424.631 23.24H418.831V27.04C418.831 28.64 418.791 30.2 418.671 31.8H424.631V23.24ZM396.511 16.12L398.591 13.36C401.111 14.4 404.311 16.16 405.911 17.56L403.711 20.64C402.231 19.2 399.071 17.28 396.511 16.12ZM394.271 27.08L396.351 24.24C398.871 25.2 402.191 26.88 403.831 28.2L401.631 31.4C400.071 30 396.871 28.2 394.271 27.08ZM399.191 50.24L395.431 47.56C397.431 44.44 400.311 39.2 402.471 34.52L405.351 36.92C403.431 41.2 400.991 45.92 399.151 49.04C399.311 49.24 399.391 49.48 399.391 49.68C399.391 49.88 399.311 50.08 399.191 50.24ZM443.959 20.93C444.916 20.93 447.094 21.128 447.853 21.359C447.721 22.811 446.764 35.846 446.764 40.4C446.764 44.096 448.645 45.482 451.78 45.482C456.103 45.482 460.195 43.007 462.604 39.575C463.231 40.301 464.089 42.149 464.32 43.04C461.878 45.878 456.895 49.013 451.483 49.013C446.632 49.013 443.365 46.736 443.365 41.324C443.365 36.836 443.926 27.827 443.992 24.824C444.058 23.075 444.058 21.986 443.959 20.93ZM485.836 24.23L485.869 22.91C485.902 21.359 485.869 20.633 485.836 19.775C486.859 19.709 488.443 19.841 489.301 20.072C489.202 21.194 489.136 22.547 489.037 24.065C491.05 23.933 493.096 23.669 494.746 23.24C494.977 24.131 494.944 25.418 494.812 26.276C493.162 26.639 491.083 26.87 488.938 27.002C488.905 28.025 488.905 29.114 488.905 30.236C488.905 30.731 488.905 31.259 488.938 31.787C491.479 31.589 494.02 31.193 496.066 30.566C496.264 31.523 496.264 32.942 496.165 33.8C494.218 34.295 491.71 34.658 489.037 34.889C489.103 36.638 489.235 38.42 489.301 40.004C492.733 40.829 495.604 42.314 497.584 43.865C497.419 44.954 496.759 46.505 496 47.297C494.284 45.548 492.04 44.096 489.466 43.172V43.997C489.466 46.67 487.882 49.046 483.229 49.046C478.543 49.046 475.804 47.099 475.804 44.03C475.804 41.324 478.444 39.311 483.46 39.311C484.351 39.311 485.209 39.344 486.067 39.443L485.902 35.087C482.899 35.219 479.863 35.219 477.388 35.087C477.025 34.163 476.794 32.843 476.794 31.721C478.411 31.919 480.556 32.084 482.272 32.084C483.361 32.084 484.549 32.051 485.803 32.018C485.77 31.424 485.77 30.929 485.77 30.467C485.77 29.477 485.77 28.322 485.803 27.167C483.097 27.266 480.556 27.233 478.774 27.101C478.444 26.276 478.213 24.89 478.213 23.933C479.137 24.065 481.282 24.263 483.064 24.263C483.823 24.263 484.78 24.263 485.836 24.23ZM486.166 42.974V42.314C485.143 42.149 484.12 42.05 483.064 42.05C480.391 42.05 479.038 42.842 479.038 43.964C479.038 45.053 479.995 46.043 482.833 46.043C484.78 46.043 486.166 45.317 486.166 42.974ZM521.08 24.362L521.047 23.735C521.014 22.613 520.948 21.491 520.783 20.303C521.773 20.204 523.456 20.303 524.347 20.534C524.314 21.128 524.281 22.547 524.281 24.296C528.769 24.197 532.993 24.065 534.544 24.065C534.742 24.923 534.775 26.342 534.709 27.167C532.663 27.068 528.637 27.101 524.248 27.2V31.754C525.271 33.107 525.733 35.054 525.733 37.397C525.733 42.05 523.258 47.33 517.747 49.442C516.823 49.112 515.338 47.891 514.843 47.099C517.747 46.406 520.552 44.492 521.806 41.39C521.146 41.786 520.354 41.984 519.496 41.984C516.493 41.984 513.82 39.608 513.82 35.78C513.82 32.15 516.46 29.675 519.562 29.675C520.123 29.675 520.651 29.741 521.146 29.84L521.113 27.299C515.239 27.464 509.365 27.695 507.121 27.794C506.89 27.002 506.626 25.484 506.659 24.494C507.748 24.593 509.629 24.626 510.916 24.593C512.566 24.593 516.691 24.494 521.08 24.362ZM519.43 39.047C521.344 39.047 522.4 37.628 522.07 34.46C521.608 32.942 520.684 32.381 519.43 32.381C518.011 32.381 516.757 33.635 516.757 35.78C516.757 37.628 517.912 39.047 519.43 39.047Z" fill="white"/>
<circle cx="287" cy="3.00012" r="3" fill="white"/>
<circle cx="373" cy="3.00012" r="3" fill="white"/>
<circle cx="329" cy="3.00012" r="3" fill="white"/>
<circle cx="415" cy="3.00012" r="3" fill="white"/>
<line x1="3" y1="72.5001" x2="540" y2="72.5001" stroke="white" stroke-width="3"/>
<circle cx="19.5" cy="32.5001" r="19.5" fill="white"/>
<path d="M27.5856 24.1787C23.0928 26.6747 18.5448 33.7747 18.5448 33.7747L14.4407 29.1155L12 31.445L17.9345 38.8218L20.0976 38.7387C22.8712 30.4183 29 24.8443 29 24.8443L27.5856 24.1787Z" fill="#93C259"/>
</svg>
