<svg width="183" height="268" viewBox="0 0 183 268" fill="none" xmlns="http://www.w3.org/2000/svg">
<g clip-path="url(#clip0_2013_1201)">
<g filter="url(#filter0_f_2013_1201)">
<ellipse cx="134.5" cy="222.5" rx="27.5" ry="12.5" fill="#CCCCCC"/>
</g>
<g filter="url(#filter1_f_2013_1201)">
<ellipse cx="47.5" cy="258.304" rx="27.5" ry="8.69063" fill="#CCCCCC"/>
</g>
<path d="M136.863 201.352C136.863 201.352 136.53 167.79 137.669 156.383C138.8 144.976 135.715 126.351 135.715 126.351L126.576 127.231C126.576 127.231 130.291 189.205 129.555 200.252C128.819 211.298 136.872 201.352 136.872 201.352H136.863Z" fill="#EAC6BB"/>
<path d="M136.864 201.352C136.864 201.352 138.047 203.526 138.108 205.128C138.17 206.73 139.116 208.825 137.022 210.339C134.928 211.853 133.114 212.812 131.729 215.233C130.345 217.653 125.727 221.975 121.854 221.165C117.981 220.355 117.053 219.616 118.612 217.75C120.172 215.884 125.973 209.265 127.226 205.999C128.479 202.743 129.548 200.243 129.548 200.243L136.864 201.343V201.352Z" fill="#EAC6BB"/>
<path d="M122.484 213.358C122.484 213.358 119.987 215.321 118.664 217.019C117.341 218.718 115.492 221.016 116.447 222.01C117.402 223.005 121.608 225.02 127.146 222.441C132.692 219.862 133.078 216.615 133.981 214.678C134.883 212.742 136.548 210.867 137.126 211.791C137.696 212.724 137.503 215.409 137.503 215.409C137.503 215.409 139.177 215.866 139.72 215.224C139.72 215.224 139.334 211.289 139.615 209.335C139.895 207.381 138.677 203.57 138.677 203.57C138.677 203.57 136.881 203.869 135.339 207.214C133.805 210.559 131.921 213.798 129.932 215.268C127.943 216.738 125.884 218.067 124.14 217.75C122.397 217.433 120.224 216.562 122.476 213.349L122.484 213.358Z" fill="#788AB5"/>
<path d="M147.107 209.142C147.107 209.142 146.774 175.58 147.913 164.173C149.044 152.766 145.959 134.141 145.959 134.141L136.82 135.021C136.82 135.021 140.536 196.995 139.799 208.042C139.063 219.088 147.116 209.142 147.116 209.142H147.107Z" fill="#FADCD7"/>
<path d="M123.107 85.1671C123.107 85.1671 119.278 91.1964 117.963 122.883C116.649 154.57 112.084 168.583 112.084 168.583C112.084 168.583 142.84 182.384 157.735 167.007C157.735 167.007 149.981 142.08 153.319 125.163C156.658 108.246 156.535 96.7064 152.995 89.4185L149.464 82.1305L123.107 85.1583V85.1671Z" fill="#BDC6E4"/>
<mask id="mask0_2013_1201" style="mask-type:luminance" maskUnits="userSpaceOnUse" x="112" y="82" width="46" height="93">
<path d="M123.107 85.1671C123.107 85.1671 119.278 91.1964 117.963 122.883C116.649 154.57 112.084 168.583 112.084 168.583C112.084 168.583 142.84 182.384 157.735 167.007C157.735 167.007 149.981 142.08 153.319 125.163C156.658 108.246 156.535 96.7064 152.995 89.4185L149.464 82.1305L123.107 85.1583V85.1671Z" fill="white"/>
</mask>
<g mask="url(#mask0_2013_1201)">
<g style="mix-blend-mode:multiply" opacity="0.31">
<path d="M115.799 92.4551C115.799 92.4551 116.132 134.511 138.782 148.506C161.433 162.501 173.008 157.334 173.008 157.334L160.083 187.63L97.5469 184.505L115.799 92.4463V92.4551Z" fill="#BDC6E4"/>
</g>
</g>
<path d="M147.106 209.142C147.106 209.142 148.289 211.316 148.351 212.918C148.421 214.511 149.358 216.615 147.264 218.128C145.17 219.642 143.356 220.602 141.972 223.022C140.587 225.443 135.969 229.765 132.097 228.955C128.224 228.145 127.295 227.406 128.854 225.54C130.414 223.674 136.215 217.055 137.468 213.789C138.721 210.532 139.79 208.033 139.79 208.033L147.106 209.133V209.142Z" fill="#FADCD7"/>
<path d="M132.729 221.156C132.729 221.156 130.231 223.119 128.908 224.818C127.585 226.517 125.736 228.814 126.691 229.809C127.646 230.803 131.852 232.819 137.39 230.24C142.937 227.661 143.322 224.413 144.225 222.477C145.127 220.54 146.792 218.665 147.37 219.59C147.94 220.523 147.747 223.207 147.747 223.207C147.747 223.207 149.421 223.665 149.964 223.022C149.964 223.022 149.578 219.088 149.859 217.134C150.139 215.18 148.921 211.369 148.921 211.369C148.921 211.369 147.125 211.668 145.583 215.013C144.049 218.357 142.166 221.596 140.176 223.066C138.187 224.536 136.128 225.865 134.385 225.549C132.641 225.232 130.468 224.36 132.72 221.148L132.729 221.156Z" fill="#A6B1D1"/>
<path d="M129.687 19.7338C126.024 17.0581 127.829 9.62047 130.221 6.14373C132.613 2.66698 138.904 -0.563315 144.065 0.0792235C149.226 0.71296 151.067 4.98188 151.067 4.98188C157.419 6.34617 157.927 12.4019 155.824 17.7446C153.73 23.0786 160.425 29.5039 163.938 35.8237C169.476 45.7874 164.525 61.7893 153.099 65.6445C141.673 69.4909 128.696 58.2509 122.414 56.3497C116.131 54.4485 135.917 30.5778 135.917 30.5778L129.687 19.7426V19.7338Z" fill="#67565F"/>
<mask id="mask1_2013_1201" style="mask-type:luminance" maskUnits="userSpaceOnUse" x="121" y="-1" width="40" height="68">
<path d="M129.688 19.7338C126.025 17.0581 127.83 9.62047 130.222 6.14373C132.614 2.66698 138.905 -0.563315 144.066 0.0792235C149.227 0.71296 151.067 4.98188 151.067 4.98188C157.42 6.34617 157.928 12.4019 155.825 17.7446C153.731 23.0786 150.691 27.2507 154.196 33.5704C159.733 43.5342 164.518 61.7981 153.092 65.6445C141.666 69.4909 128.689 58.2509 122.406 56.3497C116.124 54.4485 135.909 30.5778 135.909 30.5778L129.679 19.7426L129.688 19.7338Z" fill="white"/>
</mask>
<g mask="url(#mask1_2013_1201)">
<path d="M127.48 21.8639C127.48 21.8639 144.654 16.5564 150.402 27.3739C156.141 38.1827 157.832 52.1425 151.059 60.5659C144.286 68.9981 124.15 64.5619 124.15 64.5619L108.658 41.9059L127.48 21.8639Z" fill="#56404D"/>
</g>
<path d="M139.081 33.8168C147.817 34.3273 156.054 39.494 156.325 43.6925C156.597 47.891 148.614 61.4372 147.423 66.1902C146.231 70.9432 154.24 85.1583 153.688 86.681C153.136 88.2125 145.942 93.2032 135.48 93.3968C125.018 93.5905 120.488 87.5348 121.101 85.9416C121.714 84.3485 124.991 70.5383 125.429 66.1462C125.876 61.754 120.707 61.0763 120.54 55.5311C120.382 49.9859 122.941 40.7703 127.191 36.7391C130.354 33.7376 133.202 33.4647 139.081 33.7992V33.8168Z" fill="white"/>
<path d="M147.423 66.1902C148.615 61.4372 156.597 47.8823 156.325 43.6926C156.106 40.3479 150.823 36.387 144.268 34.6619C142.823 40.119 139.616 52.4241 137.758 60.7507C136.225 67.6337 140.141 88.4854 142.586 99.1357C143.077 101.257 145.232 102.56 147.318 101.961C153.294 100.254 159.234 97.6746 159.594 96.6888C160.146 95.1573 146.222 70.9433 147.414 66.1902H147.423Z" fill="#F7BF4D"/>
<path d="M127.453 58.1981C125.885 48.5248 134.244 33.9137 134.332 33.7552C131.396 33.9313 129.355 34.6971 127.199 36.7479C122.949 40.7704 121.828 46.6412 121.986 52.1864C122.143 57.7316 125.876 61.7717 125.438 66.155C124.991 70.5472 116.281 91.5221 115.677 93.1064C115.379 93.881 118.086 96.7064 121.144 98.8012C122.354 99.6286 124.01 98.9157 124.176 97.4545C125.403 86.9627 128.531 64.7555 127.462 58.1893L127.453 58.1981Z" fill="#F7BF4D"/>
<path d="M134.533 26.0537L134.708 35.8062C134.708 35.8062 135.628 37.2673 138.546 37.2145C141.464 37.1616 143.164 36.079 143.523 35.4541L143.339 25.3319L134.533 26.0537Z" fill="#FADCD7"/>
<g style="mix-blend-mode:multiply">
<path d="M134.533 26.0536L134.63 31.5548C134.63 31.5548 135.646 33.2711 138.625 33.2183C141.604 33.1655 143.453 31.3875 143.453 31.3875L143.374 27.1098L134.533 26.0536Z" fill="#F8CBBC"/>
</g>
<path d="M148.587 18.1906C149.994 13.5039 147.352 8.55889 142.686 7.14566C138.021 5.73244 133.098 8.38615 131.691 13.0729L130.069 18.4747C128.663 23.1614 131.304 28.1064 135.97 29.5196C140.636 30.9329 145.558 28.2792 146.965 23.5924L148.587 18.1906Z" fill="#FADCD7"/>
<path d="M146.196 21.1773C146.196 21.1773 148.921 18.4751 151.006 20.6404C153.092 22.8057 148.351 27.9724 144.715 26.1152L146.196 21.1773Z" fill="#FADCD7"/>
<path d="M155.404 41.3513C155.404 41.3513 156.806 44.3792 158.778 51.3327C160.749 58.2862 161.108 67.2289 159.759 69.9046C158.41 72.5804 154.73 72.0699 152.916 70.6704C151.102 69.2709 149.078 56.3673 148.911 53.4803C148.745 50.5933 149.735 40.5415 155.413 41.3513H155.404Z" fill="#F7BF4D"/>
<path d="M146.019 11.9354C146.019 11.9354 144.801 13.0621 139.789 13.2821C134.777 13.5021 131.693 13.0797 131.693 13.0797L130.072 18.484C130.072 18.484 128.407 16.2219 129.879 12.0322C131.351 7.84253 136.144 2.03328 142.751 3.17753C149.358 4.32177 149.936 7.34963 149.936 7.34963C149.936 7.34963 154.054 10.8792 151.724 15.0865C149.393 19.2938 148.035 20.0243 148.035 20.0243C148.035 20.0243 144.293 17.0405 146.019 11.9354Z" fill="#67565F"/>
<path d="M131.598 34.3538C131.598 34.3538 131.931 31.8276 131.212 29.592C130.494 27.3651 131.755 25.5255 130.756 25.5431C129.758 25.5607 129.731 27.7612 129.293 29.2839C128.855 30.8066 128.715 33.9489 128.715 33.9489L131.606 34.345L131.598 34.3538Z" fill="#E7AE9F"/>
<path d="M126.139 28.2189C125.307 30.5426 125.14 31.3524 126.753 34.3538C128.365 37.3553 128.68 40.2247 128.566 41.5978C128.453 42.9709 127.454 48.6041 127.454 48.6041C127.454 48.6041 130.941 50.6021 132.641 48.1816C132.641 48.1816 131.458 39.1685 132.22 36.5807C132.983 33.993 131.3 32.6023 130.082 31.59C128.724 30.4722 128.654 26.4497 129.206 25.4463C129.758 24.4429 130.845 20.4469 129.548 21.0454C128.251 21.6439 126.139 28.2189 126.139 28.2189Z" fill="#F8CBBC"/>
<path d="M127.041 45.0128C127.041 45.0128 128.286 45.5321 130.187 45.4265C132.088 45.3209 133.157 45.7082 133.157 45.7082C133.157 45.7082 130.205 57.8284 127.795 65.9349C126.007 71.9642 122.853 75.1065 118.148 73.4341C115.396 72.4571 114.564 67.0352 118.305 58.6734C121.968 50.4964 127.033 45.0128 127.033 45.0128H127.041Z" fill="#F7BF4D"/>
<path d="M114.975 67.8186C114.975 67.8186 114.3 69.5966 114.94 71.357C115.579 73.1173 117.086 74.7193 119.776 74.9833C122.466 75.2474 129.283 74.5432 129.283 74.5432L128.758 71.4362C128.758 71.4362 123.912 72.0259 122.501 71.0929C121.091 70.1599 119.724 69.0597 119.023 68.9276C118.322 68.7956 117.314 67.5898 117.113 67.9682C116.911 68.3467 117.2 69.6758 117.805 70.1335C118.409 70.6 119.356 71.7442 118.409 71.4362C117.463 71.1281 115.132 71.9907 114.975 67.8274V67.8186Z" fill="#F8CBBC"/>
<path d="M159.752 69.9046C159.664 73.9094 144.777 74.7896 135.287 76.5324C132.378 77.0693 130.109 77.4478 128.733 77.1573C123.967 76.1803 127.191 70.864 127.191 70.864C127.191 70.864 127.209 70.6351 134.499 68.8659C142.902 66.8239 159.962 60.645 159.752 69.9046Z" fill="#F7BF4D"/>
<path d="M154.496 63.6553C154.496 63.6553 146.566 71.2689 150.176 81.6903C150.176 81.6903 147.758 78.5305 148.529 72.6772C149.3 66.824 154.496 63.6641 154.496 63.6641V63.6553Z" fill="#E8980A"/>
<path d="M45.2919 51.8872C45.3532 50.6461 45.4671 49.9684 48.1309 48.5953C50.7946 47.2222 52.5471 47.2046 55.1056 50.4877C56.6916 52.5385 57.2349 53.6388 57.1735 55.6544C57.1122 57.67 59.9249 64.8172 59.9249 64.8172L53.8088 66.2871C53.8088 66.2871 53.248 61.7277 52.144 60.8651C51.0399 60.0026 50.1024 59.8265 48.6391 58.8935C46.2733 57.3972 45.2306 52.9522 45.2831 51.8872H45.2919Z" fill="#F8CBBC"/>
<g style="mix-blend-mode:multiply">
<path d="M45.2919 51.8872C45.3532 50.6461 45.4671 49.9684 48.1309 48.5953C50.7946 47.2222 52.5471 47.2046 55.1056 50.4877C56.6916 52.5385 57.2349 53.6388 57.1735 55.6544C57.1122 57.67 59.9249 64.8172 59.9249 64.8172L53.8088 66.2871C53.8088 66.2871 53.248 61.7277 52.144 60.8651C51.0399 60.0026 50.1024 59.8265 48.6391 58.8935C46.2733 57.3972 45.2306 52.9522 45.2831 51.8872H45.2919Z" fill="#F8CBBC"/>
</g>
<path d="M27.9261 119.503C27.9261 119.503 28.0663 119.926 29.4858 120.119C30.9053 120.313 31.8954 118.861 33.6566 118.685C35.4266 118.518 40.3159 117.699 40.4649 118.993C40.6051 120.295 37.4507 119.899 36.3642 120.656C35.2776 121.413 36.5832 122.223 37.7661 122.698C38.949 123.174 39.098 126.501 37.4331 129.097C35.7683 131.694 34.6029 131.861 32.1495 130.849C29.6961 129.837 28.6446 129.15 27.672 127.328C26.6994 125.506 24.1934 123.825 24.1934 123.825L27.9173 119.503H27.9261Z" fill="#F8CBBC"/>
<path d="M37.4424 122.751C37.4424 122.751 40.1061 123.191 42.4018 123.887C44.6975 124.582 46.6077 125.04 46.5551 125.744C46.5025 126.448 46.0031 126.554 44.6187 126.351C43.2342 126.158 37.4511 125.005 37.4511 125.005L37.4336 122.76L37.4424 122.751Z" fill="#F8CBBC"/>
<path d="M38.1596 125.594C38.1596 125.594 40.7707 126.281 42.9963 127.187C45.222 128.094 47.0796 128.728 46.9656 129.423C46.8517 130.118 46.3435 130.171 44.9766 129.846C43.6097 129.52 37.9668 127.83 37.9668 127.83L38.1596 125.585V125.594Z" fill="#F8CBBC"/>
<path d="M37.1433 127.909C37.1433 127.909 39.6756 128.842 41.8048 129.96C43.9341 131.078 45.7216 131.888 45.5376 132.565C45.3535 133.243 44.8453 133.252 43.5222 132.794C42.1991 132.337 36.7402 130.118 36.7402 130.118L37.1433 127.909Z" fill="#F8CBBC"/>
<path d="M33.2282 128.587C33.2282 128.587 35.594 129.89 37.5305 131.316C39.467 132.741 41.1143 133.806 40.8339 134.458C40.5535 135.109 40.0453 135.03 38.801 134.387C37.5568 133.736 32.4922 130.717 32.4922 130.717L33.2195 128.587H33.2282Z" fill="#F8CBBC"/>
<path d="M24.5782 125.594C19.575 123.579 8.00877 116.616 4.30233 113.888C0.595892 111.168 -0.236524 106.749 0.0526313 105.051C0.341786 103.352 4.46005 98.2291 11.5838 102.225C18.7075 106.221 29.6603 117.611 29.6603 117.611C29.6603 117.611 28.3635 120.119 27.3296 121.941C26.2956 123.763 24.587 125.594 24.587 125.594H24.5782Z" fill="#50558F"/>
<path d="M24.1407 65.1076C24.1407 65.1076 21.8099 59.7209 16.3422 68.822C10.8746 77.9232 0.307282 97.3754 0.0531764 105.051C-0.200929 112.735 3.54932 111.52 9.22727 107.788C14.9052 104.056 27.2775 85.4488 28.5393 81.7696C31.1943 74.0416 37.7747 63.9018 24.1407 65.1076Z" fill="#50558F"/>
<path d="M47.1928 251.092C47.1928 251.092 45.9486 254.692 45.8259 256.364C45.7032 258.036 45.0548 263.414 45.1775 264.523C45.3001 265.641 48.7612 266.416 50.4261 266.574C52.0909 266.733 53.0285 265.095 54.5619 264.999C55.4556 264.937 57.173 265.087 58.2245 265.676C60.8444 267.137 68.8093 264.066 71.4205 262.076C74.0316 260.096 71.8936 257.244 69.0897 256.936C66.645 256.672 58.3121 256.654 56.0865 255.052C53.8609 253.45 54.5005 249.736 54.5005 249.736L47.1928 251.083V251.092Z" fill="#50558F"/>
<path d="M26.2787 239.649C26.2787 239.649 25.0345 243.249 24.9118 244.921C24.7891 246.594 24.1407 251.972 24.2634 253.081C24.3861 254.19 27.8472 254.973 29.512 255.132C31.1768 255.29 32.1144 253.653 33.6478 253.556C34.5416 253.494 36.259 253.644 37.3104 254.234C39.9304 255.695 47.8953 252.623 50.5064 250.634C53.1176 248.653 50.9796 245.802 48.1756 245.494C45.731 245.229 37.3981 245.212 35.1724 243.61C32.9468 242.008 33.5865 238.294 33.5865 238.294L26.2787 239.64V239.649Z" fill="#414474"/>
<path d="M31.167 120.709C31.167 120.709 24.4989 124.362 23.5 137.547C22.5011 150.732 28.6785 180.641 28.4507 186.582C28.2229 192.524 28.1703 196.625 26.6106 209.098C25.0509 221.57 23.9118 244.86 23.9118 244.86C23.9118 244.86 30.799 249.375 37.6686 245.608C37.6686 245.608 45.0902 203.755 47.938 191.476C50.7857 179.198 46.536 124.538 46.536 124.538L31.1758 120.718L31.167 120.709Z" fill="#72788D"/>
<mask id="mask2_2013_1201" style="mask-type:luminance" maskUnits="userSpaceOnUse" x="23" y="120" width="26" height="128">
<path d="M31.167 120.709C31.167 120.709 24.4989 124.362 23.5 137.547C22.5011 150.732 28.6785 180.641 28.4507 186.582C28.2229 192.524 28.1703 196.625 26.6106 209.098C25.0509 221.57 23.9118 244.86 23.9118 244.86C23.9118 244.86 30.799 249.375 37.6686 245.608C37.6686 245.608 45.0902 203.755 47.938 191.476C50.7857 179.198 46.536 124.538 46.536 124.538L31.1758 120.718L31.167 120.709Z" fill="white"/>
</mask>
<g mask="url(#mask2_2013_1201)">
<g style="mix-blend-mode:multiply" opacity="0.15">
<path d="M23.3599 122.76C23.3599 122.76 26.9612 175.51 41.3225 187.243C55.6839 198.984 51.7496 228.471 51.7496 228.471L45.581 253.961L20.6523 250.854L23.3511 122.76H23.3599Z" fill="#BEA090"/>
</g>
</g>
<path d="M42.3127 124.828C42.3127 124.828 38.9217 132.917 39.3949 146.129C39.8681 159.349 44.6873 188.783 45.1254 194.707C45.5635 200.639 43.9425 208.323 43.776 220.883C43.6095 233.453 45.0728 256.725 45.0728 256.725C45.0728 256.725 52.4244 260.439 58.8208 255.915C58.8208 255.915 62.4134 207.601 63.8767 195.085C65.34 182.569 63.6664 126.342 63.6664 126.342L42.304 124.82L42.3127 124.828Z" fill="#8890AA"/>
<mask id="mask3_2013_1201" style="mask-type:luminance" maskUnits="userSpaceOnUse" x="39" y="124" width="26" height="135">
<path d="M42.3127 124.828C42.3127 124.828 38.9217 132.917 39.3949 146.129C39.8681 159.349 44.6873 188.783 45.1254 194.707C45.5635 200.639 43.9425 208.323 43.776 220.883C43.6095 233.453 45.0728 256.725 45.0728 256.725C45.0728 256.725 52.4244 260.439 58.8208 255.915C58.8208 255.915 62.4134 207.601 63.8767 195.085C65.34 182.569 63.6664 126.342 63.6664 126.342L42.304 124.82L42.3127 124.828Z" fill="white"/>
</mask>
<g mask="url(#mask3_2013_1201)">
<g style="mix-blend-mode:multiply" opacity="0.22">
<path d="M35.2861 127.275C35.2861 127.275 43.3649 182.261 55.0625 192.7C66.7689 203.139 68.7317 229.184 68.7317 229.184L66.4973 267.023L39.7461 267.991L35.2773 127.275H35.2861Z" fill="#BEA090"/>
</g>
</g>
<path d="M58.936 62.247C63.212 67.7041 71.6062 82.8786 73.9896 88.2918C76.3642 93.7049 75.2163 97.5778 73.8143 99.2765C72.4036 100.975 66.7432 104.593 61.3807 95.5709C56.0182 86.549 51.418 65.4245 51.418 65.4245C51.418 65.4245 51.9875 64.333 54.3008 62.9775C56.614 61.622 58.936 62.247 58.936 62.247Z" fill="#6167AD"/>
<path d="M45.3615 49.405L45.8785 60.9003C45.8785 60.9003 41.988 62.8543 37.8435 63.0392C35.5477 63.1448 33.3484 61.2876 33.3484 61.2876L32.6387 49.986L45.3615 49.4138V49.405Z" fill="#F8CBBC"/>
<g style="mix-blend-mode:multiply">
<path d="M45.5903 54.6246C45.5903 54.6246 43.5399 57.8372 39.1412 57.9165C34.7426 57.9957 32.9551 55.1967 32.9551 55.1967L32.6309 49.9772L45.3537 49.405L45.5903 54.6246Z" fill="#F8CBBC"/>
</g>
<path d="M50.611 61.1203C50.611 61.1203 47.3515 55.7248 40.1313 55.1879C32.9112 54.651 29.529 56.1385 29.3888 57.8813C29.2486 59.6152 31.0098 63.2152 31.0098 63.2152L50.6198 61.1291L50.611 61.1203Z" fill="#F2F2F2"/>
<path d="M49.8846 39.0364C49.8846 39.0364 49.7707 48.7889 46.073 49.8187L43.4355 41.5009L49.8933 39.0364H49.8846Z" fill="#6167AD"/>
<path d="M51.6894 62.2734C51.6894 62.2734 46.1342 55.7512 38.6687 55.8569C31.2033 55.9625 28.6797 57.5732 28.5658 58.4006C28.4519 59.228 28.7674 62.8104 28.7674 62.8104L51.6982 62.2734H51.6894Z" fill="#4E538C"/>
<mask id="mask4_2013_1201" style="mask-type:luminance" maskUnits="userSpaceOnUse" x="17" y="58" width="47" height="74">
<path d="M39.3955 58.5942C48.4644 58.1894 57.1128 62.0182 61.748 69.9311C66.3833 77.844 58.6111 93.7754 58.5673 101.935C58.5323 110.103 59.759 117.426 60.9331 122.223C62.1073 127.02 50.9529 131.333 41.9453 131.738C32.9464 132.143 23.4744 127.557 22.1075 124.054C20.7406 120.56 24.5347 115.956 23.0538 106.292C21.573 96.636 17.9893 77.8704 17.6125 72.3604C17.2357 66.8592 19.6716 59.4744 39.378 58.5854L39.3955 58.5942Z" fill="white"/>
</mask>
<g mask="url(#mask4_2013_1201)">
<g style="mix-blend-mode:multiply" opacity="0.32">
<path d="M61.5728 64.1306C61.5728 64.1306 61.2662 82.1921 55.3604 94.5147C49.4634 106.837 55.9037 114.328 52.9946 120.815C50.0768 127.302 31.1064 130.004 17.6914 129.713L43.2948 138.339L70.8609 135.787L71.0361 89.8585L69.8707 63.8842L61.5641 64.1394L61.5728 64.1306Z" fill="#DBDCDC"/>
</g>
</g>
<path d="M68.3281 137.16C66.3829 131.351 60.7312 117.937 60.7399 107.779C60.7399 97.6306 65.936 78.1608 60.6173 68.3027C57.7082 62.9159 57.5242 62.599 52.5998 60.8915C51.8813 60.6098 51.0839 60.337 50.1989 60.0817C50.05 60.0289 49.901 59.9849 49.7521 59.9321C49.5593 59.8705 49.3753 59.8264 49.1825 59.8088C49.1387 59.8 49.1037 59.7912 49.0686 59.7824C37.8704 57.001 29.8792 59.7824 29.8792 59.7824C16.7095 62.8015 14.9045 70.0719 15.2901 75.7667C15.7545 82.7202 19.9954 106.441 21.7566 118.649C23.2199 128.833 20.4335 134.555 20.3897 138.735L20.2846 138.85C20.2846 138.85 19.2944 141.49 23.4565 143.312C24.6482 143.832 25.9362 144.113 27.233 144.184C31.6843 144.439 42.751 146.666 52.5297 145.636C61.5286 144.685 69.5197 140.654 68.3456 137.151L68.3281 137.16Z" fill="#6167AD"/>
<path d="M29.5582 46.241C30.8895 52.0288 36.6396 55.6367 42.4013 54.2994C48.1631 52.9621 51.7548 47.1861 50.4235 41.3982L48.952 35.0006C47.6207 29.2127 41.8706 25.6049 36.1088 26.9421C30.3471 28.2794 26.7554 34.0555 28.0867 39.8433L29.5582 46.241Z" fill="#F8CBBC"/>
<path d="M58.5845 66.9824C58.5845 66.9824 51.1628 58.4798 42.9701 66.7272C34.7862 74.9746 53.4147 95.5006 56.2537 97.9211C66.5669 106.758 82.1638 103.176 74.9875 91.2228C71.6841 85.7305 63.2548 74.1824 58.5845 66.9824Z" fill="#6167AD"/>
<path d="M31.3161 53.3219C32.7443 55.3727 33.419 56.9042 35.8549 56.4201C37.0379 56.1825 40.4376 55.2319 41.1123 55.1967C42.8998 55.0822 42.3653 45.4882 42.4354 44.2823C42.7158 39.899 46.8954 36.3606 48.7267 35.9117C50.558 35.4628 52.4332 31.5988 52.328 29.5304C52.0389 24.0908 46.0192 22.5769 42.7158 22.3744C39.4124 22.172 36.7136 21.1333 31.7104 22.3744C21.2482 24.9886 23.211 31.0883 23.211 31.0883C23.211 31.0883 22.0368 30.5074 21.1519 33.6848C20.8189 34.8819 21.3271 38.2266 22.6414 41.9058C23.5352 44.4056 26.234 48.2256 27.9689 50.2236L31.3161 53.3043V53.3219Z" fill="#67565F"/>
<path d="M42.4707 35.6389C42.4707 35.6389 44.451 37.9362 45.1081 38.7195C45.7653 39.5029 46.1246 40.4887 46.1246 40.4887L46.0107 35.3308L42.4707 35.6301V35.6389Z" fill="#67565F"/>
<path d="M45.055 38.6579C45.055 38.6579 42.8995 35.6917 40.7528 37.7249C38.606 39.7582 41.4275 47.0725 46.5359 45.0921L45.055 38.6579Z" fill="#F8CBBC"/>
</g>
<defs>
<filter id="filter0_f_2013_1201" x="97" y="200" width="75" height="45" filterUnits="userSpaceOnUse" color-interpolation-filters="sRGB">
<feFlood flood-opacity="0" result="BackgroundImageFix"/>
<feBlend mode="normal" in="SourceGraphic" in2="BackgroundImageFix" result="shape"/>
<feGaussianBlur stdDeviation="5" result="effect1_foregroundBlur_2013_1201"/>
</filter>
<filter id="filter1_f_2013_1201" x="10" y="239.614" width="75" height="37.3812" filterUnits="userSpaceOnUse" color-interpolation-filters="sRGB">
<feFlood flood-opacity="0" result="BackgroundImageFix"/>
<feBlend mode="normal" in="SourceGraphic" in2="BackgroundImageFix" result="shape"/>
<feGaussianBlur stdDeviation="5" result="effect1_foregroundBlur_2013_1201"/>
</filter>
<clipPath id="clip0_2013_1201">
<rect width="183" height="268" fill="white"/>
</clipPath>
</defs>
</svg>
