<svg width="71" height="128" viewBox="0 0 71 128" fill="none" xmlns="http://www.w3.org/2000/svg">
<g clip-path="url(#clip0_2117_717)">
<path d="M69.549 112.835C65.2076 107.944 51.6076 104.375 35.5012 104.375C19.3947 104.375 5.79477 107.944 1.45337 112.835H0V116.187C0 122.712 15.8935 128 35.5012 128C55.1088 128 71.0023 122.712 71.0023 116.187V112.835H69.5513H69.549Z" fill="#FFAF22"/>
<path d="M35.5012 124.648C55.1079 124.648 71.0023 119.359 71.0023 112.835C71.0023 106.311 55.1079 101.023 35.5012 101.023C15.8944 101.023 0 106.311 0 112.835C0 119.359 15.8944 124.648 35.5012 124.648Z" fill="#FFD96E"/>
<path d="M67.5743 108.717C63.4857 104.108 50.6745 100.747 35.5018 100.747C20.3291 100.747 7.51792 104.111 3.42928 108.717H2.0625V111.873C2.0625 118.019 17.0339 123.001 35.5018 123.001C53.9697 123.001 68.9411 118.019 68.9411 111.873V108.717H67.5743Z" fill="#FFAF22"/>
<path d="M35.5018 119.845C53.9698 119.845 68.9411 114.863 68.9411 108.717C68.9411 102.571 53.9698 97.589 35.5018 97.589C17.0338 97.589 2.0625 102.571 2.0625 108.717C2.0625 114.863 17.0338 119.845 35.5018 119.845Z" fill="#FFD96E"/>
<path d="M55.3306 83.3774C52.1032 74.188 45.4682 68.0189 41.4498 64.9519C40.7009 64.73 40.0034 64.5291 39.3669 64.3399C38.6367 64.1203 38.1358 63.4522 38.1358 62.6907C38.1358 61.9292 38.6367 61.2612 39.3669 61.0416C39.4769 61.0089 39.5915 60.9738 39.7062 60.9388C42.4421 57.7153 48.1901 50.182 52.3606 39.4626C55.5576 31.2449 54.1065 18.2667 52.2389 8.53067L35.5006 4.3938L2.61124 12.525C2.61124 48.5165 22.9421 58.4441 31.6342 61.0416C32.3644 61.2612 32.8653 61.9292 32.8653 62.6907C32.8653 63.4522 32.3644 64.1203 31.6342 64.3399C23.0146 66.9187 2.95294 71.3709 2.61592 106.629C2.57614 106.853 2.55273 107.077 2.55273 107.306C2.55273 113.361 17.3041 118.269 35.5006 118.269C39.9683 118.269 44.2278 117.972 48.1128 117.437C50.8979 112.24 59.3794 94.9097 55.3306 83.3797V83.3774Z" fill="#CDEFFF"/>
<path d="M52.3575 39.4626C48.187 50.1796 42.439 57.7152 39.7031 60.9388C48.5732 58.1848 68.3868 48.0563 68.3868 12.525L52.2358 8.53064C54.1035 18.2666 55.5545 31.2449 52.3575 39.4626Z" fill="#EBFAFF"/>
<path d="M68.4478 107.304C68.4478 107.077 68.4244 106.851 68.3846 106.627C68.0733 73.9684 50.8388 67.7409 41.4492 64.9518C45.4676 68.0189 52.1026 74.188 55.33 83.3774C59.3788 94.9074 50.8997 112.237 48.1123 117.435C60.0505 115.788 68.4478 111.873 68.4478 107.304Z" fill="#EBFAFF"/>
<path d="M18.6777 39.4626C22.8482 50.1796 28.5962 57.7152 31.3321 60.9388C22.4621 58.1848 2.64844 48.0563 2.64844 12.525L18.7994 8.53064C16.9318 18.2666 15.4807 31.2449 18.6777 39.4626Z" fill="#B2E0FF"/>
<path d="M2.58984 107.304C2.58984 107.077 2.61325 106.851 2.65303 106.627C2.9643 73.9684 20.1988 67.7409 29.5884 64.9518C25.57 68.0189 18.935 74.188 15.7077 83.3774C11.6588 94.9074 20.138 112.237 22.9254 117.435C10.9871 115.788 2.58984 111.873 2.58984 107.304Z" fill="#B2E0FF"/>
<path d="M40.8848 59.5022C45.5959 58.3156 49.7618 55.4261 53.8949 51.5835C61.0307 44.9496 61.8124 41.0487 61.8124 41.0487C61.8124 41.0487 57.9695 39.4953 52.6732 38.5936C52.5726 38.888 52.4696 39.1799 52.3596 39.4649C48.7203 48.8202 43.8781 55.7508 40.8871 59.5046L40.8848 59.5022Z" fill="#FCF2F3"/>
<path d="M67.3371 108.607L67.6928 108.6L67.7326 107.713C67.8473 107.341 67.9082 106.965 67.9082 106.585C67.9082 106.311 67.8777 106.04 67.8169 105.772L67.9035 103.779C67.9035 103.779 67.7982 97.6988 57.6082 97.6988C56.899 97.6988 56.2367 97.6661 55.6095 97.6077C54.0484 105.295 50.5683 112.712 48.6328 116.449C58.2026 115.036 65.3314 112.123 67.3371 108.607Z" fill="#FCF2F3"/>
<path d="M45.3389 53.2537C47.6816 49.5887 50.2256 44.9426 52.36 39.4626C52.47 39.1776 52.5753 38.8879 52.6736 38.5913C48.6786 37.9115 43.8574 37.6009 39.2352 38.6076C28.4835 40.9482 24.2825 38.6076 18.3192 39.2897C12.3583 39.9718 11.8691 45.5336 11.8691 45.5336C11.8691 45.5336 12.2436 46.0498 12.9364 46.886C15.1644 48.2082 17.9986 49.6541 21.5723 51.1117C27.9475 53.7115 37.5126 53.7933 45.3412 53.2514L45.3389 53.2537Z" fill="#FFD96E"/>
<path d="M29.5592 59.0958C30.2099 59.2873 30.8511 59.4485 31.4807 59.584C32.5994 60.467 33.6713 61.4948 33.6432 62.1815C33.587 63.6041 31.8762 64.6833 32.1617 65.0243C32.4473 65.3653 33.814 67.0145 35.8666 66.559C37.9191 66.1035 37.7482 65.5359 37.6335 63.9428C37.5189 62.3497 38.1461 60.3595 39.1712 60.1329C39.665 60.0231 39.9201 59.848 40.0511 59.6961C40.332 59.6377 40.6105 59.5747 40.8867 59.5046C42.1271 57.9489 43.6834 55.8489 45.3404 53.2561C37.5118 53.798 27.9467 53.7162 21.5715 51.1164C17.9978 49.6588 15.1636 48.2129 12.9355 46.8907C15.3812 49.8503 21.7869 56.816 29.5592 59.0981V59.0958Z" fill="#FFC83E"/>
<path d="M3.71821 100.843L3.50758 104.302L3.70651 104.454C3.29226 105.143 3.07227 105.856 3.07227 106.585C3.07227 112.541 17.5849 117.372 35.4888 117.372C40.1672 117.372 44.6139 117.042 48.63 116.449C49.0115 115.713 49.4515 114.833 49.9266 113.837C43.5748 113.419 35.8937 112.31 29.4811 109.612C21.3085 106.173 15.4809 100.92 12.1155 97.2456C5.87838 98.4556 3.71821 100.843 3.71821 100.843Z" fill="#FFC83E"/>
<path d="M35.5006 5.94483L66.8756 13.7023C66.6907 28.3484 63.0281 39.9975 55.9859 48.3366C53.3553 51.4504 50.2636 54.0736 46.7976 56.1339C44.2863 57.6242 41.6417 58.7921 38.9339 59.6027C37.5554 60.0161 36.6286 61.2565 36.6286 62.6931C36.6286 64.1296 37.5554 65.37 38.9339 65.7834C39.2709 65.8839 39.6243 65.9867 39.9917 66.0964C44.4033 67.3859 51.0711 69.3363 56.6107 74.9822C59.6556 78.0866 62.0545 82.0156 63.7372 86.6593C65.7452 92.2024 66.8007 98.9251 66.8756 106.645V106.774L66.899 106.9C66.9248 107.045 66.9388 107.178 66.9388 107.306C66.9388 108.547 65.8435 109.668 64.9238 110.392C63.4236 111.572 61.1394 112.693 58.3192 113.632C52.2459 115.652 44.1412 116.767 35.4982 116.767C26.8552 116.767 18.7505 115.655 12.6772 113.632C9.85705 112.693 7.57284 111.574 6.07266 110.392C4.40631 109.082 4.0576 107.991 4.0576 107.306C4.0576 107.18 4.07164 107.047 4.09738 106.9L4.12079 106.774V106.645C4.19568 98.9251 5.25119 92.2001 7.25923 86.6593C8.94196 82.0156 11.3408 78.0866 14.3857 74.9822C19.9253 69.3363 26.5931 67.3859 31.0047 66.0964C31.3745 65.989 31.7279 65.8862 32.0625 65.7834C33.441 65.37 34.3678 64.1296 34.3678 62.6931C34.3678 61.2565 33.441 60.0161 32.0625 59.6027C29.3547 58.7921 26.7101 57.6265 24.1989 56.1339C20.7328 54.0736 17.6411 51.4504 15.0106 48.3366C7.97305 39.9952 4.31036 28.3461 4.12547 13.7L35.5006 5.94483ZM35.5006 4.3938L2.61124 12.525C2.61124 48.5165 22.9421 58.4441 31.6342 61.0416C32.3644 61.2612 32.8653 61.9292 32.8653 62.6907C32.8653 63.4522 32.3644 64.1203 31.6342 64.3399C23.0146 66.9187 2.95294 71.3709 2.61592 106.629C2.57614 106.853 2.55273 107.077 2.55273 107.306C2.55273 113.361 17.3041 118.269 35.5006 118.269C53.697 118.269 68.4484 113.361 68.4484 107.306C68.4484 107.08 68.425 106.853 68.3852 106.629C68.0505 71.3709 47.9865 66.9187 39.3669 64.3399C38.6367 64.1203 38.1358 63.4522 38.1358 62.6907C38.1358 61.9292 38.6367 61.2612 39.3669 61.0416C48.059 58.4417 68.3899 48.5165 68.3899 12.525L35.5006 4.3938Z" fill="#EBFAFF"/>
<path d="M35.5008 26.7507C17.082 26.7507 2.15039 21.7822 2.15039 15.6528V18.8016C2.15039 24.931 17.082 29.8995 35.5008 29.8995C53.9195 29.8995 68.8511 24.931 68.8511 18.8016V15.6528C68.8511 21.7822 53.9195 26.7507 35.5008 26.7507Z" fill="#F29214"/>
<path d="M46.0609 14.4101C48.6985 10.5699 48.7687 7.52625 48.097 5.37489C44.2097 4.84698 39.9596 4.55499 35.5011 4.55499C17.08 4.55733 2.14844 9.52578 2.14844 15.6528C2.14844 20.0116 9.69849 23.7817 20.6842 25.5967C25.3486 24.7488 41.2655 21.3921 46.0586 14.4101H46.0609Z" fill="#FCE8B6"/>
<path d="M68.8525 15.6528C68.8525 11.0067 60.2726 7.02869 48.098 5.37488C48.7697 7.52624 48.6995 10.5699 46.0619 14.4101C41.2688 21.3944 25.3519 24.7488 20.6875 25.5967C25.1506 26.3349 30.1801 26.7506 35.5021 26.7506C53.9208 26.7506 68.8525 21.7822 68.8525 15.6528Z" fill="#FFF2DA"/>
<path d="M35.5012 23.6252C15.8935 23.6252 0 18.3368 0 11.8126V15.1646C0 21.6888 15.8935 26.9772 35.5012 26.9772C55.1088 26.9772 71.0023 21.6888 71.0023 15.1646V11.8126C71.0023 18.3368 55.1088 23.6252 35.5012 23.6252Z" fill="#FFAF22"/>
<path d="M70.9991 11.8126C70.9991 6.86752 61.8647 2.63254 48.906 0.871277C49.6221 3.16045 49.5449 6.40034 46.7388 10.4882C41.6368 17.921 24.6948 21.4926 19.7285 22.3965C24.4795 23.1814 29.8343 23.6229 35.498 23.6229C55.1033 23.6229 70.9991 18.3344 70.9991 11.8103V11.8126Z" fill="#FFE299"/>
<path d="M48.9077 0.8713C45.0882 0.352731 40.9388 0.0490651 36.5903 0.00701904C28.598 1.22402 14.4176 4.12287 11.6606 9.62857C7.77796 17.3814 19.7303 22.3989 19.7303 22.3989C24.6965 21.4949 41.6362 17.9233 46.7405 10.4905C49.5467 6.4027 49.6239 3.16281 48.9077 0.873636V0.8713Z" fill="#FFD96E"/>
<path d="M11.6598 9.62856C14.4167 4.12285 28.5971 1.22401 36.5894 0.00700768C36.229 0.00233589 35.8663 0 35.5012 0C15.8935 0 0 5.28846 0 11.8126C0 16.4517 8.03685 20.4648 19.7317 22.3989C19.7317 22.3989 7.77707 17.3814 11.6621 9.62856H11.6598Z" fill="#FFC83E"/>
<path d="M41.0446 90.8009C39.6193 90.1445 38.5638 88.8854 38.1426 87.3764C37.2953 84.3374 36.2071 79.8806 36.0409 76.5449C35.7647 70.9761 37.6253 65.1317 37.6253 65.1317H34.9386L33.078 65.8185C33.078 65.8185 34.7303 67.2621 34.8005 70.8383C34.8684 74.4146 34.7326 83.4218 34.2505 85.1387C33.9135 86.337 33.0382 89.6843 30.2297 89.6469C29.4551 89.6376 28.6781 89.7147 27.9409 89.9553C23.129 91.5273 22.2608 96.1267 15.5884 96.7527C14.3105 96.8719 13.1567 97.0424 12.1152 97.2433C15.483 100.918 21.3082 106.171 29.4808 109.609C35.8958 112.307 43.5769 113.417 49.9264 113.835C51.8618 109.775 54.352 103.779 55.6064 97.603C49.0628 96.9863 46.5843 93.3446 41.0423 90.7985L41.0446 90.8009Z" fill="#FFD96E"/>
</g>
<defs>
<clipPath id="clip0_2117_717">
<rect width="71" height="128" fill="white"/>
</clipPath>
</defs>
</svg>
