<svg width="206" height="188" viewBox="0 0 206 188" fill="none" xmlns="http://www.w3.org/2000/svg">
<g style="mix-blend-mode:multiply">
<path d="M2.96875 142.804L81.1855 187.96L205.606 116.135L127.376 70.9796L2.96875 142.804Z" fill="#E2E6F4"/>
</g>
<path d="M4.26758 141.637L83.9166 184.247L205.923 108.417L126.287 65.8208L4.26758 141.637Z" fill="#F7F7F7"/>
<path d="M4.24023 140.722L83.876 183.332L205.896 107.502L126.247 64.9058L4.24023 140.722Z" fill="#F7F7F7"/>
<path d="M108.715 89.0021L167.132 120.26L180.672 111.839L122.255 80.5942L108.715 89.0021Z" fill="#B7C3DD"/>
<path d="M99.7363 94.5852L158.154 125.829L160.156 124.583L101.739 93.3386L99.7363 94.5852Z" fill="#B7C3DD"/>
<path d="M92.3906 99.1605L109.167 108.125L111.169 106.879L94.3931 97.9139L92.3906 99.1605Z" fill="#B7C3DD"/>
<path d="M112.109 109.703L150.807 130.405L152.809 129.158L114.112 108.457L112.109 109.703Z" fill="#B7C3DD"/>
<path d="M85.043 103.722L143.447 134.967L145.449 133.72L87.0455 102.476L85.043 103.722Z" fill="#B7C3DD"/>
<path d="M77.6816 108.298L116.75 129.185L118.753 127.938L79.6841 107.051L77.6816 108.298Z" fill="#B7C3DD"/>
<path d="M120.438 131.161L136.099 139.542L138.102 138.295L122.44 129.914L120.438 131.161Z" fill="#B7C3DD"/>
<path d="M70.3359 112.86L93.7691 125.392L95.7716 124.145L72.3384 111.613L70.3359 112.86Z" fill="#B7C3DD"/>
<path d="M98.7285 128.057L128.753 144.104L130.755 142.857L100.744 126.811L98.7285 128.057Z" fill="#B7C3DD"/>
<path d="M62.9746 117.435L121.392 148.679L123.394 147.433L64.9904 116.188L62.9746 117.435Z" fill="#B7C3DD"/>
<path d="M55.6289 121.997L91.9789 141.438L93.9814 140.192L57.6314 120.75L55.6289 121.997Z" fill="#B7C3DD"/>
<path d="M99.9082 145.682L114.045 153.241L116.048 151.995L101.911 144.435L99.9082 145.682Z" fill="#B7C3DD"/>
<path d="M48.2812 126.572L106.699 157.816L108.701 156.57L50.2838 125.326L48.2812 126.572Z" fill="#B7C3DD"/>
<path d="M37.0361 136.293C41.4125 133.574 48.1626 133.07 52.1013 135.179C56.0267 137.287 55.6687 141.2 51.3056 143.918C46.9293 146.637 40.1791 147.141 36.2404 145.032C32.3018 142.924 32.6731 139.011 37.0361 136.293ZM37.5268 136.558C33.4555 139.091 33.1107 142.751 36.7842 144.701C40.4444 146.663 46.7436 146.199 50.8149 143.666C54.8862 141.133 55.2178 137.473 51.5576 135.524C47.8974 133.561 41.5981 134.025 37.5268 136.558Z" fill="#B7C3DD"/>
<path d="M38.5069 137.089C41.9814 134.927 47.3391 134.542 50.4556 136.2C53.572 137.858 53.2935 140.974 49.819 143.136C46.3445 145.297 40.9868 145.682 37.8703 144.024C34.7539 142.353 35.0324 139.25 38.5069 137.089ZM38.9976 137.341C35.828 139.316 35.5628 142.154 38.4141 143.68C41.2653 145.205 46.1721 144.847 49.3416 142.871C52.5111 140.895 52.7763 138.057 49.9251 136.532C47.0739 135.006 42.1803 135.365 38.9976 137.341Z" fill="#B7C3DD"/>
<path d="M39.7285 138.64L47.0489 142.552L48.6138 141.584L41.2934 137.672L39.7285 138.64Z" fill="#B7C3DD"/>
<path d="M4.24023 140.722L4.26676 141.637L83.9158 184.247L83.876 183.332L4.24023 140.722Z" fill="#E1E2E2"/>
<path d="M205.895 107.502L205.921 108.417L83.9148 184.247L83.875 183.332L205.895 107.502Z" fill="#EEEEEF"/>
<path d="M1.88086 131.108L80.0976 176.277L204.505 104.439L126.288 59.2829L1.88086 131.108Z" fill="#F7F7F7"/>
<path d="M1.88086 130.193L80.0976 175.361L204.505 103.537L126.288 58.3678L1.88086 130.193Z" fill="#F7F7F7"/>
<path d="M107.973 81.8939L165.342 115.021L179.148 107.051L121.778 73.9237L107.973 81.8939Z" fill="#B7C3DD"/>
<path d="M98.8223 87.172L156.192 120.299L158.234 119.119L100.865 85.9917L98.8223 87.172Z" fill="#B7C3DD"/>
<path d="M91.3301 91.5085L107.814 101.017L109.857 99.8368L93.3724 90.3282L91.3301 91.5085Z" fill="#B7C3DD"/>
<path d="M110.705 102.688L148.7 124.623L150.742 123.442L112.747 101.508L110.705 102.688Z" fill="#B7C3DD"/>
<path d="M83.8379 95.8318L141.207 128.959L143.25 127.779L85.8802 94.6515L83.8379 95.8318Z" fill="#B7C3DD"/>
<path d="M76.332 100.155L114.711 122.315L116.753 121.135L78.3876 98.9748L76.332 100.155Z" fill="#B7C3DD"/>
<path d="M118.33 124.411L133.714 133.283L135.756 132.102L120.372 123.23L118.33 124.411Z" fill="#B7C3DD"/>
<path d="M68.8379 104.492L91.86 117.78L93.9023 116.599L70.8802 103.311L68.8379 104.492Z" fill="#B7C3DD"/>
<path d="M96.7402 120.591L126.207 137.606L128.25 136.425L98.7825 119.411L96.7402 120.591Z" fill="#B7C3DD"/>
<path d="M61.3457 108.815L118.715 141.942L120.758 140.762L63.388 107.635L61.3457 108.815Z" fill="#B7C3DD"/>
<path d="M53.8535 113.138L89.5404 133.747L91.5827 132.566L55.8958 111.958L53.8535 113.138Z" fill="#B7C3DD"/>
<path d="M97.3379 138.256L111.223 146.266L113.265 145.085L99.3802 137.075L97.3379 138.256Z" fill="#B7C3DD"/>
<path d="M46.3594 117.475L103.729 150.589L105.771 149.409L48.4017 116.294L46.3594 117.475Z" fill="#B7C3DD"/>
<path d="M34.8096 126.837C39.2655 124.265 46.0421 123.986 49.9013 126.214C53.7604 128.442 53.283 132.354 48.8138 134.927C44.3447 137.5 37.5813 137.778 33.7221 135.55C29.863 133.322 30.3404 129.41 34.8096 126.837ZM35.287 127.103C31.1361 129.503 30.6852 133.15 34.2791 135.219C37.873 137.301 44.1855 137.036 48.3364 134.635C52.4873 132.235 52.9382 128.601 49.3443 126.519C45.7504 124.437 39.4379 124.702 35.287 127.103Z" fill="#B7C3DD"/>
<path d="M36.2558 127.673C39.7966 125.631 45.1676 125.405 48.231 127.182C51.2944 128.946 50.9098 132.049 47.369 134.091C43.8282 136.134 38.4572 136.359 35.3938 134.582C32.3304 132.818 32.715 129.715 36.2558 127.673ZM36.7332 127.938C33.4974 129.808 33.1526 132.646 35.9508 134.251C38.749 135.869 43.6558 135.67 46.8916 133.8C50.1274 131.93 50.4722 129.105 47.674 127.487C44.8758 125.869 39.969 126.068 36.7332 127.938Z" fill="#B7C3DD"/>
<path d="M37.4082 129.264L44.6092 133.415L46.2006 132.487L39.0129 128.336L37.4082 129.264Z" fill="#B7C3DD"/>
<path d="M1.88086 130.193V131.108L80.0976 176.277V175.362L1.88086 130.193Z" fill="#E1E2E2"/>
<path d="M204.505 103.537V104.439L80.0977 176.277V175.361L204.505 103.537Z" fill="#EEEEEF"/>
<path d="M0.859375 124.808L79.0762 169.964L203.496 98.1393L125.266 52.9704L0.859375 124.808Z" fill="#F7F7F7"/>
<path d="M0.859375 123.893L79.0762 169.062L203.496 97.2243L125.266 52.0686L0.859375 123.893Z" fill="#F7F7F7"/>
<path d="M32.6602 117.634L90.0297 150.761L103.835 142.791L46.4655 109.677L32.6602 117.634Z" fill="#B7C3DD"/>
<path d="M97.8145 80.8728L155.184 114L157.226 112.82L99.8567 79.6925L97.8145 80.8728Z" fill="#B7C3DD"/>
<path d="M90.3086 85.196L106.793 94.7178L108.835 93.5375L92.3509 84.0157L90.3086 85.196Z" fill="#B7C3DD"/>
<path d="M109.684 96.3888L147.678 118.323L149.734 117.143L111.726 95.2085L109.684 96.3888Z" fill="#B7C3DD"/>
<path d="M82.8164 89.5325L140.186 122.647L142.228 121.466L84.8587 88.3522L82.8164 89.5325Z" fill="#B7C3DD"/>
<path d="M75.3223 93.8558L113.688 116.016L115.73 114.836L77.3645 92.6755L75.3223 93.8558Z" fill="#B7C3DD"/>
<path d="M117.309 118.098L132.692 126.983L134.734 125.803L119.351 116.918L117.309 118.098Z" fill="#B7C3DD"/>
<path d="M67.8301 98.1791L90.8389 111.467L92.8812 110.287L69.8724 96.9988L67.8301 98.1791Z" fill="#B7C3DD"/>
<path d="M95.7188 114.292L125.199 131.307L127.242 130.126L97.761 113.112L95.7188 114.292Z" fill="#B7C3DD"/>
<path d="M60.3242 102.516L117.707 135.63L119.749 134.45L62.3798 101.335L60.3242 102.516Z" fill="#B7C3DD"/>
<path d="M52.832 106.839L88.5322 127.447L90.5745 126.267L54.8743 105.659L52.832 106.839Z" fill="#B7C3DD"/>
<path d="M96.3164 131.943L110.201 139.966L112.244 138.786L98.3587 130.763L96.3164 131.943Z" fill="#B7C3DD"/>
<path d="M24.877 122.435L82.2598 155.562L84.3021 154.382L26.9325 121.254L24.877 122.435Z" fill="#B7C3DD"/>
<path d="M158.606 93.4978C163.062 90.925 169.839 90.6466 173.698 92.8745C177.557 95.1024 177.08 99.0146 172.611 101.587C168.155 104.16 161.378 104.439 157.519 102.211C153.66 99.9827 154.137 96.0705 158.606 93.4978ZM159.084 93.7763C154.933 96.1766 154.482 99.8236 158.076 101.892C161.67 103.961 167.982 103.709 172.133 101.309C176.284 98.9085 176.735 95.2748 173.141 93.1928C169.547 91.1107 163.235 91.3759 159.084 93.7763Z" fill="#B7C3DD"/>
<path d="M160.053 94.3332C163.594 92.2909 168.964 92.0655 172.028 93.8425C175.091 95.6196 174.707 98.7095 171.166 100.752C167.625 102.794 162.254 103.02 159.191 101.243C156.127 99.4787 156.512 96.3755 160.053 94.3332ZM160.53 94.6117C157.294 96.4816 156.949 99.3196 159.748 100.924C162.546 102.542 167.453 102.343 170.688 100.473C173.924 98.6035 174.269 95.7787 171.471 94.1608C168.673 92.5429 163.766 92.7418 160.53 94.6117Z" fill="#B7C3DD"/>
<path d="M161.219 95.9379L168.407 100.089L169.998 99.1605L162.81 95.0096L161.219 95.9379Z" fill="#B7C3DD"/>
<path d="M0.859375 123.893V124.808L79.0762 169.964V169.062L0.859375 123.893Z" fill="#E1E2E2"/>
<path d="M203.496 97.2242V98.1393L79.0762 169.964V169.062L203.496 97.2242Z" fill="#EEEEEF"/>
<path d="M114.165 72.2527C114.709 71.3907 115.425 70.6216 116.314 69.9983C117.123 69.428 118.011 69.0567 118.926 68.8312L115.558 54.9066L38.4682 -56L24.6895 -46.4251L101.779 64.4814L114.165 72.2527Z" fill="#F2E1C7"/>
<path d="M114.166 72.2527L120.744 76.3771L118.927 68.8312C118.012 69.0567 117.137 69.428 116.314 69.9983C115.426 70.6216 114.71 71.3907 114.166 72.2527Z" fill="#736357"/>
<path d="M115.558 54.9066L109.736 54.7474L104.418 58.4474L101.779 64.4814L24.6895 -46.4251L26.1748 -51.3319L32.3679 -55.6287L38.4682 -56L115.558 54.9066Z" fill="#FFAF22"/>
<path d="M101.779 64.4815L104.418 58.4474L26.1748 -51.3319L24.6895 -46.4251L101.779 64.4815Z" fill="#F79326"/>
<path d="M109.735 54.7474L115.557 54.9066L38.4675 -56L32.3672 -55.6287L109.735 54.7474Z" fill="#F79326"/>
</svg>
