<svg width="123" height="131" viewBox="0 0 123 131" fill="none" xmlns="http://www.w3.org/2000/svg">
    <g clip-path="url(#clip0_2912_1549)">
        <g clip-path="url(#clip1_2912_1549)">
            <path d="M68.5494 63.6228L32.261 33.2573L48.3098 32.0768L49.2908 45.8586L52.8901 45.6097L51.6566 28.2651L23.2231 30.363L66.2124 66.3322L68.5494 63.6228Z" fill="#FFFFFF"/>
            <path d="M115.354 112.279H102.595L123 83.6837L85.9326 71.9144L103.244 54.3281L110.089 1L66.0898 30.953L53.77 48.2763L56.7273 50.3173L68.672 33.5131L105.494 8.44559L103.042 27.568L87.606 31.3086L88.4644 34.7576L102.558 31.3442L99.9546 51.5973L80.5157 49.2434L80.0757 52.7707L97.6465 54.9041L82.1025 70.6984L82.0809 70.6913L72.4516 55.7717L69.4077 57.6846L79.7367 73.6852L117.23 85.5896L92.5469 120.179L77.6233 91.9471L74.4207 93.5899L92.0853 127.006L100.056 115.834H118.961V98.39H115.354V112.279Z" fill="#FFFFFF"/>
            <path d="M52.8395 87.6308L67.7704 92.566L56.107 112.833L52.7963 102.095L49.3485 103.126L53.0415 115.13L33.1337 120.066L32.5062 110.622L28.9069 110.856L29.5777 120.947L13.2043 125.015L26.808 81.0385L36.8773 70.4995L47.8626 79.7656L50.2068 77.0633L9.90801 43.0852L25.9496 41.7554L30.8184 57.2511L34.259 56.1986L28.5391 37.9722L1 40.2549L34.1291 68.1883L23.6054 79.2038L7.88838 130L57.4558 117.698L73.0719 90.5678L53.9864 84.26L52.8395 87.6308Z" fill="#FFFFFF"/>
        </g>
    </g>
    <defs>
        <clipPath id="clip0_2912_1549">
            <rect width="122.98" height="131" fill="currentColor"/>
        </clipPath>
        <clipPath id="clip1_2912_1549">
            <rect width="122" height="129" fill="currentColor" transform="translate(1 1)"/>
        </clipPath>
    </defs>
</svg>
