<svg width="319" height="54" viewBox="0 0 319 54" fill="currentColor" xmlns="http://www.w3.org/2000/svg">
    <path d="M0.240701 2.83752H5.53417V18.6645H24.6762V2.83752H30.0232V40.6938H24.6762V23.3698H5.53417V40.6938H0.240701V2.83752ZM49.3532 40.6938H44.327V15.3494H49.3532V40.6938ZM50.2087 6.20609C50.2087 7.13289 49.87 7.89929 49.1928 8.50527C48.5511 9.11126 47.7669 9.41425 46.8401 9.41425C45.9133 9.41425 45.1291 9.11126 44.4875 8.50527C43.8458 7.86364 43.525 7.09725 43.525 6.20609C43.525 5.27929 43.8458 4.5129 44.4875 3.90691C45.1291 3.26528 45.9133 2.94446 46.8401 2.94446C47.7669 2.94446 48.5511 3.26528 49.1928 3.90691C49.87 4.5129 50.2087 5.27929 50.2087 6.20609ZM73.0823 35.24H73.1892L80.1937 15.3494H85.5407L73.2427 46.6824C72.815 47.7518 72.3516 48.6964 71.8525 49.5163C71.3535 50.3718 70.7653 51.0847 70.088 51.6551C69.4107 52.2611 68.6087 52.7245 67.6819 53.0453C66.7907 53.3661 65.7213 53.5265 64.4737 53.5265C63.939 53.5265 63.3865 53.4909 62.8162 53.4196C62.2815 53.3839 61.729 53.2948 61.1586 53.1522L61.6399 48.7143C62.4954 48.9994 63.333 49.142 64.1529 49.142C65.4718 49.142 66.4521 48.7677 67.0937 48.0192C67.7354 47.3062 68.3235 46.2725 68.8582 44.9179L70.4623 40.6938L59.608 15.3494H65.2223L73.0823 35.24ZM121.414 27.9681C121.414 29.9287 121.057 31.7288 120.344 33.3685C119.667 35.0083 118.704 36.4341 117.457 37.6461C116.245 38.8224 114.801 39.7492 113.126 40.4265C111.45 41.0681 109.65 41.3889 107.725 41.3889C105.801 41.3889 104 41.0681 102.325 40.4265C100.65 39.7492 99.206 38.8224 97.994 37.6461C96.782 36.4341 95.8196 35.0083 95.1067 33.3685C94.4294 31.7288 94.0908 29.9287 94.0908 27.9681C94.0908 26.0076 94.4294 24.2253 95.1067 22.6212C95.8196 20.9815 96.782 19.5734 97.994 18.3971C99.206 17.2208 100.65 16.3118 102.325 15.6702C104 14.9929 105.801 14.6543 107.725 14.6543C109.65 14.6543 111.45 14.9929 113.126 15.6702C114.801 16.3118 116.245 17.2208 117.457 18.3971C118.704 19.5734 119.667 20.9815 120.344 22.6212C121.057 24.2253 121.414 26.0076 121.414 27.9681ZM116.174 27.9681C116.174 26.7562 115.978 25.5977 115.585 24.4926C115.229 23.3876 114.694 22.4251 113.981 21.6053C113.268 20.7498 112.377 20.0725 111.308 19.5734C110.274 19.0744 109.08 18.8249 107.725 18.8249C106.371 18.8249 105.159 19.0744 104.09 19.5734C103.056 20.0725 102.182 20.7498 101.47 21.6053C100.757 22.4251 100.204 23.3876 99.812 24.4926C99.4555 25.5977 99.2773 26.7562 99.2773 27.9681C99.2773 29.1801 99.4555 30.3386 99.812 31.4436C100.204 32.5487 100.757 33.5289 101.47 34.3845C102.182 35.24 103.056 35.9172 104.09 36.4163C105.159 36.9153 106.371 37.1649 107.725 37.1649C109.08 37.1649 110.274 36.9153 111.308 36.4163C112.377 35.9172 113.268 35.24 113.981 34.3845C114.694 33.5289 115.229 32.5487 115.585 31.4436C115.978 30.3386 116.174 29.1801 116.174 27.9681ZM138.863 26.3641H139.024L149.664 15.3494H156.401L144.531 26.8453L157.417 40.6938H150.466L139.024 27.5404H138.863V40.6938H133.837V0.270989H138.863V26.3641ZM184.506 40.6938C184.435 40.0522 184.381 39.3393 184.346 38.5551C184.31 37.7352 184.292 37.0579 184.292 36.5232H184.185C183.544 37.8778 182.457 39.0363 180.924 39.9987C179.427 40.9255 177.751 41.3889 175.898 41.3889C174.258 41.3889 172.832 41.1216 171.62 40.5869C170.444 40.0522 169.464 39.3215 168.679 38.3947C167.931 37.4322 167.36 36.3272 166.968 35.0796C166.612 33.8319 166.434 32.4952 166.434 31.0694V15.3494H171.46V29.3583C171.46 30.3921 171.531 31.3902 171.674 32.3526C171.852 33.2794 172.155 34.0993 172.583 34.8122C173.01 35.5251 173.598 36.0955 174.347 36.5232C175.096 36.951 176.058 37.1649 177.234 37.1649C179.266 37.1649 180.906 36.4163 182.154 34.9192C183.401 33.3864 184.025 31.3545 184.025 28.8236V15.3494H189.051V35.24C189.051 35.9172 189.069 36.7906 189.105 37.86C189.14 38.9294 189.194 39.874 189.265 40.6938H184.506ZM227.39 35.9885H244.287V40.6938H222.097V2.83752H227.39V35.9885ZM260.046 35.9885H276.943V40.6938H254.753V2.83752H260.046V35.9885ZM318.246 34.8122C316.749 36.8441 314.806 38.5016 312.418 39.7849C310.03 41.0325 307.16 41.6563 303.809 41.6563C300.922 41.6563 298.249 41.1751 295.789 40.2126C293.365 39.2145 291.262 37.8421 289.48 36.0955C287.733 34.3132 286.361 32.21 285.362 29.7861C284.364 27.3265 283.865 24.6352 283.865 21.7122C283.865 18.7536 284.364 16.0623 285.362 13.6383C286.396 11.1787 287.804 9.09344 289.587 7.38242C291.404 5.63575 293.543 4.28119 296.003 3.31874C298.462 2.3563 301.136 1.87507 304.023 1.87507C305.307 1.87507 306.608 1.99983 307.927 2.24936C309.245 2.49888 310.511 2.87317 311.723 3.37221C312.935 3.87126 314.04 4.49507 315.038 5.24364C316.036 5.95657 316.892 6.79426 317.604 7.7567L313.434 10.9649C312.507 9.6816 311.188 8.63004 309.477 7.81017C307.802 6.95466 305.984 6.52691 304.023 6.52691C301.813 6.52691 299.817 6.93684 298.035 7.7567C296.288 8.54092 294.791 9.62813 293.543 11.0183C292.296 12.4085 291.333 14.0304 290.656 15.8841C289.979 17.702 289.64 19.6447 289.64 21.7122C289.64 23.851 289.961 25.8472 290.602 27.7008C291.28 29.5544 292.224 31.1763 293.436 32.5665C294.684 33.9211 296.181 34.9904 297.928 35.7747C299.71 36.5589 301.688 36.951 303.863 36.951C306.002 36.951 307.944 36.5232 309.691 35.6677C311.438 34.8122 312.881 33.5646 314.022 31.9249L318.246 34.8122Z" fill="#44585F"/>
</svg>
