<svg width="9" height="15" viewBox="0 0 9 15" fill="none" xmlns="http://www.w3.org/2000/svg">
<g clip-path="url(#clip0_2219_104)">
<path d="M8.36295 6.86808L1.95706 0.14436C1.86542 0.04824 1.75993 0 1.64085 0C1.5217 0 1.41627 0.04824 1.3247 0.14436L0.637462 0.865872C0.545683 0.962064 0.5 1.07251 0.5 1.19772C0.5 1.32293 0.545683 1.43345 0.637462 1.52957L6.03969 7.20007L0.637462 12.8708C0.545683 12.967 0.5 13.0776 0.5 13.2025C0.5 13.3277 0.545683 13.4384 0.637462 13.5346L1.3247 14.2558C1.41634 14.352 1.52177 14.4 1.64085 14.4C1.75993 14.4 1.86536 14.3519 1.957 14.2558L8.36254 7.53206C8.45411 7.43594 8.49993 7.32521 8.49993 7.20022C8.5 7.07515 8.45452 6.96442 8.36295 6.86808Z" fill="white"/>
</g>
<defs>
<clipPath id="clip0_2219_104">
<rect width="8" height="14.4" fill="white" transform="translate(0.5)"/>
</clipPath>
</defs>
</svg>
