<svg width="87" height="41" viewBox="0 0 87 41" fill="none" xmlns="http://www.w3.org/2000/svg">
<path d="M13.3284 3H86.3284V38H13.3284V20.5V3Z" fill="#93C259"/>
<path d="M39.2226 24.144C38.5986 24.144 38.0426 24.04 37.5546 23.832C37.0746 23.616 36.6706 23.32 36.3426 22.944C36.0146 22.568 35.7666 22.124 35.5986 21.612C35.4306 21.1 35.3466 20.548 35.3466 19.956C35.3466 19.364 35.4306 18.812 35.5986 18.3C35.7666 17.788 36.0146 17.344 36.3426 16.968C36.6706 16.592 37.0746 16.3 37.5546 16.092C38.0426 15.876 38.5986 15.768 39.2226 15.768C39.6626 15.768 40.0666 15.812 40.4346 15.9C40.8026 15.988 41.1586 16.124 41.5026 16.308L41.1186 17.496C40.5506 17.192 39.9586 17.04 39.3426 17.04C38.5346 17.04 37.9266 17.296 37.5186 17.808C37.1106 18.32 36.9066 19.036 36.9066 19.956C36.9066 20.876 37.1106 21.592 37.5186 22.104C37.9346 22.616 38.5426 22.872 39.3426 22.872C39.5826 22.872 39.8666 22.832 40.1946 22.752C40.5306 22.672 40.8626 22.544 41.1906 22.368L41.5506 23.568C41.2306 23.752 40.8706 23.896 40.4706 24C40.0786 24.096 39.6626 24.144 39.2226 24.144ZM45.6572 21.36H44.8292C44.4452 21.36 44.1492 21.444 43.9412 21.612C43.7332 21.78 43.6292 22.016 43.6292 22.32C43.6292 22.536 43.6932 22.712 43.8212 22.848C43.9492 22.976 44.1092 23.04 44.3012 23.04C44.5012 23.04 44.6852 23.004 44.8532 22.932C45.0212 22.852 45.1652 22.748 45.2852 22.62C45.4052 22.492 45.4972 22.344 45.5612 22.176C45.6252 22.008 45.6572 21.832 45.6572 21.648V21.36ZM42.1892 22.368C42.1892 22 42.2492 21.688 42.3692 21.432C42.4972 21.176 42.6732 20.968 42.8972 20.808C43.1292 20.648 43.4092 20.532 43.7372 20.46C44.0652 20.388 44.4332 20.352 44.8412 20.352H45.6572V20.16C45.6572 19.544 45.3052 19.236 44.6012 19.236C44.2732 19.236 43.9692 19.28 43.6892 19.368C43.4172 19.448 43.1532 19.564 42.8972 19.716L42.5612 18.66C42.8092 18.492 43.1292 18.352 43.5212 18.24C43.9132 18.12 44.3332 18.06 44.7812 18.06C45.5892 18.06 46.1852 18.252 46.5692 18.636C46.9532 19.02 47.1452 19.556 47.1452 20.244V24H45.8252L45.6572 23.244C45.5852 23.356 45.5012 23.468 45.4052 23.58C45.3092 23.684 45.1932 23.78 45.0572 23.868C44.9212 23.948 44.7652 24.012 44.5892 24.06C44.4132 24.116 44.2132 24.144 43.9892 24.144C43.7412 24.144 43.5092 24.104 43.2932 24.024C43.0772 23.944 42.8852 23.828 42.7172 23.676C42.5572 23.516 42.4292 23.328 42.3332 23.112C42.2372 22.896 42.1892 22.648 42.1892 22.368ZM50.3826 22.956C50.7186 22.956 50.9586 22.908 51.1026 22.812C51.2546 22.708 51.3306 22.568 51.3306 22.392C51.3306 22.16 51.2226 21.984 51.0066 21.864C50.7906 21.744 50.5146 21.632 50.1786 21.528C49.9306 21.456 49.6986 21.376 49.4826 21.288C49.2666 21.192 49.0786 21.076 48.9186 20.94C48.7586 20.796 48.6306 20.628 48.5346 20.436C48.4466 20.244 48.4026 20.012 48.4026 19.74C48.4026 19.22 48.6066 18.812 49.0146 18.516C49.4226 18.212 49.9786 18.06 50.6826 18.06C51.0186 18.06 51.3586 18.092 51.7026 18.156C52.0466 18.212 52.3706 18.32 52.6746 18.48L52.3266 19.608C52.0946 19.488 51.8426 19.4 51.5706 19.344C51.2986 19.28 51.0306 19.248 50.7666 19.248C50.4626 19.248 50.2426 19.292 50.1066 19.38C49.9706 19.46 49.9026 19.58 49.9026 19.74C49.9026 19.916 49.9786 20.052 50.1306 20.148C50.2906 20.244 50.4986 20.336 50.7546 20.424C51.0906 20.536 51.3866 20.652 51.6426 20.772C51.8986 20.884 52.1146 21.02 52.2906 21.18C52.4666 21.332 52.5986 21.512 52.6866 21.72C52.7826 21.92 52.8306 22.16 52.8306 22.44C52.8306 22.928 52.6266 23.336 52.2186 23.664C51.8106 23.984 51.2186 24.144 50.4426 24.144C50.0586 24.144 49.6826 24.104 49.3146 24.024C48.9466 23.952 48.6226 23.844 48.3426 23.7L48.6906 22.548C48.9146 22.66 49.1746 22.756 49.4706 22.836C49.7746 22.916 50.0786 22.956 50.3826 22.956ZM55.1981 21.624C55.2861 22.096 55.4781 22.44 55.7741 22.656C56.0781 22.864 56.4221 22.968 56.8061 22.968C57.3261 22.968 57.8141 22.848 58.2701 22.608L58.6061 23.676C58.3501 23.828 58.0541 23.944 57.7181 24.024C57.3901 24.104 57.0301 24.144 56.6381 24.144C56.1421 24.144 55.7101 24.072 55.3421 23.928C54.9741 23.784 54.6661 23.58 54.4181 23.316C54.1701 23.044 53.9861 22.72 53.8661 22.344C53.7461 21.968 53.6861 21.548 53.6861 21.084C53.6861 20.668 53.7421 20.276 53.8541 19.908C53.9661 19.54 54.1341 19.22 54.3581 18.948C54.5901 18.676 54.8821 18.46 55.2341 18.3C55.5941 18.14 56.0141 18.06 56.4941 18.06C56.8861 18.06 57.2341 18.124 57.5381 18.252C57.8421 18.372 58.0981 18.544 58.3061 18.768C58.5221 18.984 58.6821 19.244 58.7861 19.548C58.8981 19.852 58.9541 20.18 58.9541 20.532C58.9541 20.716 58.9381 20.908 58.9061 21.108C58.8741 21.308 58.8341 21.48 58.7861 21.624H55.1981ZM56.5061 19.176C56.1221 19.176 55.8101 19.316 55.5701 19.596C55.3381 19.868 55.2021 20.244 55.1621 20.724H57.5141V20.568C57.5141 20.112 57.4301 19.768 57.2621 19.536C57.0941 19.296 56.8421 19.176 56.5061 19.176ZM59.9716 23.22C59.9716 22.972 60.0556 22.756 60.2236 22.572C60.3916 22.38 60.6316 22.284 60.9436 22.284C61.2556 22.284 61.4956 22.38 61.6636 22.572C61.8316 22.756 61.9156 22.972 61.9156 23.22C61.9156 23.468 61.8316 23.688 61.6636 23.88C61.4956 24.064 61.2556 24.156 60.9436 24.156C60.6316 24.156 60.3916 24.064 60.2236 23.88C60.0556 23.688 59.9716 23.468 59.9716 23.22ZM66.0522 16.056C66.5242 16.056 66.9482 16.148 67.3242 16.332C67.7082 16.516 68.0322 16.784 68.2962 17.136C68.5682 17.48 68.7762 17.904 68.9202 18.408C69.0642 18.904 69.1362 19.468 69.1362 20.1C69.1362 20.732 69.0642 21.3 68.9202 21.804C68.7762 22.3 68.5682 22.724 68.2962 23.076C68.0322 23.42 67.7082 23.684 67.3242 23.868C66.9482 24.052 66.5242 24.144 66.0522 24.144C65.5802 24.144 65.1522 24.052 64.7682 23.868C64.3922 23.684 64.0682 23.42 63.7962 23.076C63.5322 22.724 63.3282 22.3 63.1842 21.804C63.0402 21.3 62.9682 20.732 62.9682 20.1C62.9682 19.468 63.0402 18.904 63.1842 18.408C63.3282 17.904 63.5322 17.48 63.7962 17.136C64.0682 16.784 64.3922 16.516 64.7682 16.332C65.1522 16.148 65.5802 16.056 66.0522 16.056ZM66.0522 22.872C66.5082 22.872 66.8762 22.644 67.1562 22.188C67.4362 21.732 67.5762 21.036 67.5762 20.1C67.5762 19.164 67.4362 18.468 67.1562 18.012C66.8762 17.556 66.5082 17.328 66.0522 17.328C65.5962 17.328 65.2282 17.556 64.9482 18.012C64.6682 18.468 64.5282 19.164 64.5282 20.1C64.5282 21.036 64.6682 21.732 64.9482 22.188C65.2282 22.644 65.5962 22.872 66.0522 22.872ZM72.7583 22.872C73.2383 22.872 73.6303 22.76 73.9343 22.536C74.2383 22.304 74.3903 22.012 74.3903 21.66C74.3903 21.492 74.3503 21.344 74.2703 21.216C74.1983 21.08 74.0943 20.968 73.9583 20.88C73.8303 20.792 73.6783 20.724 73.5023 20.676C73.3263 20.628 73.1423 20.604 72.9503 20.604H71.6063V19.38H72.9503C73.1023 19.38 73.2503 19.356 73.3943 19.308C73.5463 19.26 73.6783 19.192 73.7903 19.104C73.9103 19.008 74.0023 18.9 74.0663 18.78C74.1383 18.652 74.1743 18.508 74.1743 18.348C74.1743 18.044 74.0503 17.8 73.8023 17.616C73.5623 17.424 73.2063 17.328 72.7343 17.328C72.3823 17.328 72.0223 17.368 71.6543 17.448C71.2863 17.528 70.9583 17.644 70.6703 17.796L70.3223 16.644C70.5783 16.508 70.9303 16.376 71.3783 16.248C71.8343 16.12 72.3263 16.056 72.8543 16.056C73.3183 16.056 73.7263 16.116 74.0783 16.236C74.4383 16.348 74.7383 16.504 74.9783 16.704C75.2183 16.896 75.3983 17.128 75.5183 17.4C75.6463 17.664 75.7103 17.944 75.7103 18.24C75.7103 18.664 75.5983 19.012 75.3743 19.284C75.1583 19.548 74.8703 19.756 74.5103 19.908C74.7023 19.956 74.8823 20.036 75.0503 20.148C75.2263 20.252 75.3783 20.384 75.5063 20.544C75.6423 20.696 75.7503 20.872 75.8303 21.072C75.9103 21.272 75.9503 21.488 75.9503 21.72C75.9503 22.096 75.8703 22.436 75.7103 22.74C75.5583 23.036 75.3463 23.288 75.0743 23.496C74.8103 23.704 74.4903 23.864 74.1143 23.976C73.7463 24.088 73.3463 24.144 72.9143 24.144C72.3623 24.144 71.8463 24.088 71.3663 23.976C70.8943 23.856 70.5263 23.716 70.2623 23.556L70.6103 22.404C70.8983 22.556 71.2343 22.672 71.6183 22.752C72.0103 22.832 72.3903 22.872 72.7583 22.872Z" fill="white"/>
<path d="M0.328368 20.25L13.2059 2.71299L13.2059 37.787L0.328368 20.25Z" fill="#93C259"/>
<circle cx="16.9146" cy="21" r="3" fill="white"/>
</svg>
