<svg width="25" height="15" viewBox="0 0 25 15" fill="none" xmlns="http://www.w3.org/2000/svg">
<path d="M7.18744 10.5434C7.18374 10.5056 7.17189 10.4708 7.17189 10.433V10.1093C7.17189 9.95517 7.19706 9.80331 7.24746 9.65884C7.24746 9.65884 8.05424 8.57873 8.43577 7.30968C8.01792 6.42808 7.63862 5.33095 7.63862 4.24339C7.63862 3.99078 7.65716 3.74632 7.68309 3.50551C7.1386 2.93508 6.40295 2.61206 5.59024 2.61206C3.91225 2.61206 2.55065 3.98111 2.55065 6.10876C2.55065 7.81116 3.93601 9.6588 3.93601 9.6588C3.98489 9.80326 4.01011 9.95513 4.01011 10.1092V10.433C4.01011 10.8367 3.77452 11.2042 3.40707 11.3723L1.20754 12.271C0.696334 12.5066 0.332583 12.9762 0.231119 13.5289L0.193331 14.0126C0.174082 14.2645 0.259994 14.5127 0.431865 14.6972C0.602978 14.8831 0.843788 14.9876 1.0964 14.9876H4.69163L4.83903 13.0933L4.84866 13.0422C5.02868 12.0487 5.68507 11.2042 6.60217 10.7819L7.18744 10.5434Z" fill="#44585F"/>
<path d="M24.4256 13.5289C24.3249 12.9762 23.9611 12.5065 23.45 12.271L21.249 11.3723C20.8815 11.2042 20.6474 10.8367 20.6474 10.433V10.1092C20.6474 9.95513 20.6719 9.80326 20.7222 9.6588C20.7222 9.6588 22.1068 7.81116 22.1068 6.10876C22.1068 3.98111 20.7459 2.61206 19.065 2.61206C18.2538 2.61206 17.5181 2.93508 16.9721 3.50698C16.9988 3.74703 17.0173 3.99073 17.0173 4.24335C17.0173 5.33014 16.6388 6.42733 16.2217 7.30887C16.6025 8.57793 17.4107 9.6588 17.4107 9.6588C17.4596 9.80326 17.4855 9.95513 17.4855 10.1092V10.433C17.4855 10.4707 17.4729 10.5055 17.4692 10.5433L18.0145 10.7656C18.9701 11.2027 19.6265 12.0472 19.8087 13.0407L19.8177 13.0925L19.9644 14.9876H23.561C23.8137 14.9876 24.0544 14.8831 24.2248 14.6972C24.3967 14.5127 24.4827 14.2645 24.4634 14.0126L24.4256 13.5289Z" fill="#44585F"/>
<path d="M17.6323 11.7012L14.9698 10.6129C14.5253 10.4084 14.2416 9.96393 14.2416 9.47648V9.08386C14.2416 8.89866 14.2712 8.71418 14.3327 8.53861C14.3327 8.53861 16.007 6.30428 16.007 4.24329C16.007 1.66815 14.3602 0.0124512 12.3281 0.0124512C10.2967 0.0124512 8.64911 1.6682 8.64911 4.24329C8.64911 6.30428 10.3249 8.53861 10.3249 8.53861C10.3849 8.71418 10.416 8.89866 10.416 9.08386V9.47648C10.416 9.96393 10.13 10.4084 9.68626 10.6129L7.02375 11.7012C6.40515 11.9849 5.96435 12.5539 5.84288 13.2236L5.70581 14.9875H12.3281H18.9503L18.8148 13.2236C18.6917 12.5539 18.2509 11.985 17.6323 11.7012Z" fill="#44585F"/>
</svg>
