<svg width="47" height="49" viewBox="0 0 47 49" fill="none" xmlns="http://www.w3.org/2000/svg">
<path d="M44.2564 32.0862C40.1388 30.7311 36.2595 29.3688 32.3224 28.1857C30.6103 27.6695 29.3678 26.8593 28.5515 25.246C27.9085 23.9841 27.0344 22.8441 26.2615 21.6467C26.3409 21.4746 26.4204 21.2953 26.4999 21.1232C26.9477 21.2953 27.5762 21.3384 27.8146 21.661C28.8621 23.095 29.794 24.6151 30.632 25.8913C32.4886 24.0701 34.3307 22.2705 36.2161 20.4278C34.4607 20.1553 32.4452 19.8398 30.4297 19.5315C30.3791 19.3379 30.3286 19.1443 30.2708 18.9507C30.7548 18.7786 31.2605 18.4345 31.7228 18.4703C33.6733 18.6352 35.6093 18.9077 37.7115 19.1658C38.051 16.6491 38.3689 14.2687 38.7084 11.7233C36.8374 11.9743 35.1325 12.2109 33.4277 12.3973C33.3699 12.3973 33.2543 11.8954 33.1243 11.4867C34.7135 11.0852 36.2378 10.8056 37.6826 10.2893C38.2533 10.0814 38.9468 9.42176 39.0552 8.86249C39.4164 7.01263 39.5392 5.11257 39.7848 3.01892C39.3008 3.24836 38.9468 3.37025 38.6434 3.57101C35.6671 5.56428 32.8209 7.77265 29.7073 9.51497C25.9147 11.6373 23.9715 15.2868 20.9229 18.5134C20.894 18.033 20.6557 17.4092 20.8724 17.0937C23.1479 13.8457 25.3079 10.569 28.9199 8.43229C33.1098 5.94429 37.0324 3.01892 41.5041 -0.00683594C41.2729 2.11549 41.114 3.82913 40.8973 5.5356C40.341 10.0097 39.792 14.4838 39.1491 18.9507C39.0407 19.7036 38.6506 20.5425 38.116 21.0731C36.3173 22.8871 34.4029 24.5792 32.1779 26.6513C37.2275 28.322 41.7208 29.8133 46.3803 31.3549C43.8736 34.8754 41.468 38.2453 38.8818 41.8733C40.5433 42.0311 41.9303 42.1601 43.4979 42.3107C43.4979 40.8408 43.4618 39.4427 43.5268 38.0517C43.5413 37.6932 43.8808 37.3419 44.0758 36.9905C44.3287 37.3132 44.7693 37.6143 44.8055 37.9585C44.9644 39.7868 45.0222 41.6224 45.1233 43.673C43.2451 43.5654 41.4752 43.587 39.7414 43.3288C38.3544 43.1281 37.4803 43.5009 36.794 44.6911C36.2378 45.6591 35.501 46.5338 34.6702 47.6954C34.2295 46.921 33.8828 46.3474 33.5721 45.7451C31.9251 42.5832 30.3141 39.4068 28.6382 36.2592C28.1831 35.406 28.0747 34.8539 29.3389 34.6818C31.1304 38.1162 32.9148 41.5292 34.8291 45.2002C38.0077 40.7691 41.0706 36.503 44.2492 32.0719L44.2564 32.0862Z" fill="black"/>
<path d="M12.6949 25.4177C8.62779 21.9618 4.64015 18.5775 0.276855 14.8706C2.46572 14.6484 4.25005 14.4404 6.0416 14.2827C9.19126 14.015 11.2381 15.3916 12.182 18.4126C12.3626 18.9791 12.6371 19.5383 12.6804 20.1119C12.7093 20.5063 12.4059 20.9293 12.2542 21.338C12.0664 21.3093 11.8786 21.2878 11.6908 21.2591C11.2645 19.9255 10.7661 18.6134 10.4338 17.2582C10.087 15.8314 9.49467 15.1144 7.84037 15.5159C6.64841 15.8027 5.37699 15.7525 3.62156 15.8888C8.91675 20.3915 13.8363 24.5717 18.7558 28.7518C18.7558 28.9382 18.7558 29.1175 18.7486 29.3039C18.2646 29.3039 17.6433 29.4975 17.3255 29.268C16.1263 28.4005 15.0282 27.3895 13.7351 26.3068C12.1314 28.3359 10.2749 29.9851 9.50911 32.6021C8.11488 37.3774 6.4028 42.0666 4.69794 47.1501C7.00239 46.6052 9.04678 46.1248 11.2212 45.6086C11.1201 44.7051 10.9395 43.9451 10.99 43.1994C11.0262 42.676 11.3729 42.1741 11.5824 41.6579C11.8352 42.1024 12.1748 42.5254 12.312 43.0058C12.4998 43.6726 12.5287 44.3825 12.6443 45.2429C15.1655 44.6191 17.5133 44.0383 20.085 43.4002C19.6516 42.1024 19.2109 40.9552 18.922 39.7721C18.8281 39.3921 19.1315 38.9117 19.2543 38.4815C19.5577 38.7612 19.9911 38.9834 20.1501 39.3348C20.5401 40.1737 20.8002 41.0771 21.2553 42.339C22.7868 39.6933 24.1305 37.363 25.6186 34.789C24.0366 34.2584 22.5267 33.7923 21.0603 33.2259C20.6846 33.0825 20.4462 32.5878 20.1428 32.2508C20.5763 32.1576 21.0603 31.8851 21.4359 31.9927C23.437 32.5806 25.4019 33.2618 27.598 33.9859C25.6547 37.3989 23.7982 40.6971 21.8983 43.9666C21.7466 44.2319 21.3565 44.4398 21.0386 44.5187C15.0788 45.9957 9.11902 47.4512 2.85582 48.9856C3.02197 48.2328 3.08699 47.7381 3.23869 47.272C5.08081 41.6937 6.88681 36.1011 8.83728 30.5658C9.2346 29.4401 10.1809 28.5009 10.925 27.5186C11.4524 26.8087 12.0664 26.1634 12.7021 25.4106L12.6949 25.4177Z" fill="black"/>
<path d="M18.2139 11.6948C16.2707 11.8454 14.5008 11.9816 12.7309 12.1179C12.5214 12.3401 12.3191 12.5624 12.1096 12.7847C12.5937 12.9711 13.1716 13.05 13.5544 13.3654C17.3181 16.4772 21.0529 19.6177 24.7588 22.7869C25.1634 23.131 25.3223 23.7548 25.5968 24.2496L24.99 24.6582C19.6948 20.2343 14.3996 15.8104 8.75049 11.0854C12.5937 10.7627 15.9456 10.4903 19.4998 10.1963C19.6515 12.2756 19.8104 14.147 19.8971 16.0255C19.9116 16.341 19.5865 16.6637 19.4131 16.9863C19.1603 16.678 18.7268 16.3912 18.6762 16.0542C18.4668 14.7134 18.3801 13.3583 18.2139 11.702V11.6948Z" fill="black"/>
</svg>
