<svg width="46" height="49" viewBox="0 0 46 49" fill="none" xmlns="http://www.w3.org/2000/svg">
<g clip-path="url(#clip0_2117_3719)">
<path d="M43.8673 32.086C39.7601 30.7308 35.8908 29.3685 31.9638 28.1855C30.2561 27.6692 29.0167 26.859 28.2025 25.2458C27.5612 23.9838 26.6893 22.8438 25.9184 21.6464C25.9976 21.4743 26.0769 21.2951 26.1561 21.123C26.6029 21.2951 27.2298 21.3381 27.4675 21.6608C28.5123 23.0948 29.4419 24.6148 30.2777 25.8911C32.1295 24.0699 33.9669 22.2702 35.8476 20.4275C34.0966 20.1551 32.0863 19.8396 30.0759 19.5313C30.0255 19.3377 29.9751 19.1441 29.9174 18.9505C30.4002 18.7784 30.9046 18.4342 31.3657 18.4701C33.3112 18.635 35.2423 18.9075 37.3391 19.1656C37.6778 16.6489 37.9948 14.2685 38.3335 11.7231C36.4672 11.974 34.7667 12.2107 33.0662 12.3971C33.0086 12.3971 32.8933 11.8952 32.7636 11.4865C34.3488 11.085 35.8692 10.8053 37.3103 10.2891C37.8795 10.0812 38.5712 9.42151 38.6793 8.86225C39.0396 7.01238 39.1621 5.11232 39.4071 3.01867C38.9243 3.24811 38.5712 3.37001 38.2686 3.57077C35.2999 5.56403 32.461 7.77241 29.3554 9.51472C25.5725 11.6371 23.6342 15.2866 20.5935 18.5131C20.5647 18.0327 20.3269 17.4089 20.543 17.0934C22.8128 13.8454 24.9672 10.5687 28.57 8.43205C32.7492 5.94405 36.6618 3.01867 41.122 -0.00708008C40.8914 2.11525 40.7329 3.82889 40.5167 5.53536C39.9619 10.0095 39.4143 14.4836 38.773 18.9505C38.6649 19.7033 38.2758 20.5422 37.7426 21.0728C35.9484 22.8868 34.039 24.579 31.8197 26.6511C36.8563 28.3217 41.3382 29.8131 45.9857 31.3546C43.4854 34.8751 41.086 38.245 38.5064 41.8731C40.1637 42.0308 41.5471 42.1599 43.1107 42.3104C43.1107 40.8406 43.0747 39.4424 43.1395 38.0514C43.1539 37.6929 43.4926 37.3416 43.6872 36.9903C43.9393 37.3129 44.3789 37.6141 44.4149 37.9582C44.5734 39.7866 44.6311 41.6221 44.732 43.6728C42.8585 43.5652 41.0932 43.5867 39.3638 43.3286C37.9804 43.1278 37.1085 43.5007 36.424 44.6909C35.8692 45.6589 35.1342 46.5336 34.3056 47.6951C33.866 46.9208 33.5202 46.3472 33.2103 45.7449C31.5675 42.5829 29.9606 39.4066 28.289 36.2589C27.835 35.4057 27.7269 34.8536 28.9879 34.6815C30.7749 38.116 32.5546 41.5289 34.4641 45.2C37.6345 40.7689 40.6897 36.5027 43.8601 32.0716L43.8673 32.086Z" fill="white"/>
<path d="M12.3863 25.4177C8.32957 21.9618 4.35213 18.5775 0 14.8706C2.18327 14.6484 3.96303 14.4404 5.75 14.2827C8.8916 14.015 10.9332 15.3916 11.8747 18.4126C12.0548 18.9791 12.3286 19.5383 12.3719 20.1119C12.4007 20.5063 12.0981 20.9293 11.9467 21.338C11.7594 21.3093 11.5721 21.2878 11.3847 21.2591C10.9596 19.9255 10.4624 18.6134 10.131 17.2582C9.78509 15.8314 9.19424 15.1144 7.54417 15.5159C6.35526 15.8027 5.08709 15.7525 3.33615 15.8888C8.61779 20.3915 13.5247 24.5717 18.4317 28.7518C18.4317 28.9382 18.4317 29.1175 18.4245 29.3039C17.9417 29.3039 17.3221 29.4975 17.005 29.268C15.8089 28.4005 14.7137 27.3895 13.4239 26.3068C11.8242 28.3359 9.97243 29.9851 9.20865 32.6021C7.81798 37.3774 6.11028 42.0666 4.40977 47.1501C6.70833 46.6052 8.74749 46.1248 10.9164 45.6086C10.8155 44.7051 10.6353 43.9451 10.6858 43.1994C10.7218 42.676 11.0677 42.1741 11.2766 41.6579C11.5288 42.1024 11.8675 42.5254 12.0044 43.0058C12.1917 43.6726 12.2206 44.3825 12.3358 45.2429C14.8506 44.6191 17.1924 44.0383 19.7575 43.4002C19.3252 42.1024 18.8857 40.9552 18.5974 39.7721C18.5038 39.3921 18.8064 38.9117 18.9289 38.4815C19.2315 38.7612 19.6638 38.9834 19.8224 39.3348C20.2115 40.1737 20.4709 41.0771 20.9248 42.339C22.4524 39.6933 23.7926 37.363 25.2769 34.789C23.6989 34.2584 22.193 33.7923 20.7303 33.2259C20.3556 33.0825 20.1178 32.5878 19.8152 32.2508C20.2475 32.1576 20.7303 31.8851 21.1049 31.9927C23.1009 32.5806 25.0608 33.2618 27.2513 33.9859C25.313 37.3989 23.4612 40.6971 21.5661 43.9666C21.4148 44.2319 21.0257 44.4398 20.7086 44.5187C14.7641 45.9957 8.81955 47.4512 2.57237 48.9856C2.7381 48.2328 2.80294 47.7381 2.95426 47.272C4.79167 41.6937 6.59305 36.1011 8.53853 30.5658C8.93484 29.4401 9.87876 28.5009 10.6209 27.5186C11.1469 26.8087 11.7594 26.1634 12.3935 25.4106L12.3863 25.4177Z" fill="white"/>
<path d="M17.8914 11.6943C15.9531 11.8449 14.1877 11.9811 12.4224 12.1174C12.2134 12.3396 12.0117 12.5619 11.8027 12.7842C12.2855 12.9706 12.8619 13.0495 13.2438 13.365C16.9979 16.4767 20.7231 19.6172 24.4196 22.7864C24.8231 23.1305 24.9816 23.7543 25.2554 24.2491L24.6501 24.6578C19.3685 20.2338 14.0869 15.8099 8.45215 11.0849C12.2855 10.7622 15.6288 10.4898 19.174 10.1958C19.3253 12.2751 19.4838 14.1465 19.5703 16.025C19.5847 16.3405 19.2604 16.6632 19.0875 16.9858C18.8353 16.6775 18.403 16.3907 18.3525 16.0537C18.1436 14.7129 18.0571 13.3578 17.8914 11.7015V11.6943Z" fill="white"/>
</g>
<defs>
<clipPath id="clip0_2117_3719">
<rect width="46" height="49" fill="white"/>
</clipPath>
</defs>
</svg>
